{"glyphs":{"0":{"ha":680,"x_min":14,"x_max":730,"o":"m 320 971 q 575 861 517 971 q 609 762 609 794 q 623 541 623 713 l 623 513 l 530 513 l 530 495 l 623 495 l 623 513 l 730 513 l 730 495 l 624 495 q 614 179 624 354 l 614 117 l 528 117 l 528 0 l 125 0 l 125 66 l 45 66 l 45 366 l 100 366 l 100 392 l 14 392 l 14 485 q 65 860 14 786 q 168 951 95 921 q 320 971 234 971 m 210 340 l 210 319 l 239 319 l 239 178 l 354 178 l 354 191 l 440 191 l 440 431 l 425 431 q 410 716 425 671 q 325 802 387 802 l 310 802 q 222 703 239 802 q 210 340 210 663 z "},"1":{"ha":471,"x_min":24,"x_max":499,"o":"m 279 972 l 398 972 l 398 569 l 348 569 l 348 551 l 398 551 l 398 304 l 355 304 l 355 286 l 426 286 l 426 0 l 309 0 l 309 13 l 210 13 l 210 99 l 226 99 l 226 286 l 210 286 l 210 419 l 250 419 l 250 444 l 210 444 l 210 727 q 77 675 92 675 q 24 826 36 791 l 26 826 q 279 972 144 865 m 398 569 l 499 569 l 499 551 l 398 551 l 398 569 z "},"2":{"ha":586,"x_min":26,"x_max":562,"o":"m 300 970 q 525 854 478 970 q 551 689 551 789 q 387 355 551 516 l 496 355 l 496 345 l 380 345 l 384 355 l 319 355 l 319 345 l 380 345 l 380 288 l 293 288 l 293 237 l 328 237 l 328 167 l 562 167 l 562 16 l 328 16 l 328 0 l 26 0 l 26 154 l 83 154 l 83 319 l 136 319 l 136 450 l 176 450 l 176 464 l 267 464 q 336 557 320 523 q 371 688 371 614 q 342 800 371 777 q 301 811 322 811 l 282 811 q 201 732 220 811 q 191 650 191 689 q 190 648 190 650 q 26 661 38 661 q 63 859 26 772 q 119 926 80 892 q 300 970 183 970 m 256 450 l 342 450 l 342 464 l 271 464 q 256 450 269 464 z "},"3":{"ha":662,"x_min":20,"x_max":702,"o":"m 304 970 q 524 871 475 970 q 557 709 557 811 l 557 680 q 516 541 557 584 l 516 478 q 560 423 540 455 l 583 423 l 583 236 l 494 236 l 494 212 l 583 212 l 583 66 l 516 66 l 516 22 l 397 22 l 397 0 l 177 0 l 177 22 l 96 22 l 96 81 l 20 81 l 20 161 l 72 161 l 72 176 l 20 176 l 20 248 l 192 248 l 192 151 l 368 151 l 368 391 l 413 391 l 413 406 l 231 406 l 231 491 l 210 491 q 213 570 210 503 l 286 570 q 370 614 357 570 q 379 672 379 636 l 379 705 q 345 800 379 781 q 311 808 330 808 l 294 808 q 211 739 229 808 q 203 687 205 716 l 43 695 l 43 696 q 108 909 43 838 q 304 970 168 970 m 583 236 l 702 236 l 702 212 l 583 212 l 583 236 z "},"4":{"ha":624,"x_min":16,"x_max":595,"o":"m 527 970 l 527 397 q 526 355 527 382 l 595 355 l 595 217 l 509 217 l 509 194 l 540 194 l 540 1 q 504 0 515 0 l 370 0 l 370 188 l 229 188 l 229 172 l 20 172 q 16 174 16 172 l 16 209 l 94 209 l 94 230 l 16 230 l 16 295 q 150 581 22 313 l 37 581 l 37 602 l 161 602 q 152 581 152 583 l 302 581 q 313 602 305 581 l 161 602 l 161 604 q 336 970 161 605 l 527 970 m 336 648 q 315 602 336 643 l 338 602 l 338 648 l 336 648 m 339 602 l 339 581 l 395 581 l 395 602 l 339 602 m 186 336 l 369 336 l 369 355 l 338 355 l 338 581 l 307 581 q 248 463 303 581 l 186 336 z "},"5":{"ha":630,"x_min":26,"x_max":595,"o":"m 90 975 l 571 975 q 570 968 571 973 q 559 807 570 949 l 245 807 q 233 605 243 794 q 376 634 283 634 q 557 553 513 634 q 595 318 595 488 l 562 318 l 562 149 l 507 149 l 507 123 l 562 123 l 562 0 l 424 0 l 424 12 l 122 12 l 122 89 l 26 89 l 26 227 l 198 227 l 198 184 l 383 184 l 383 342 l 432 342 l 432 360 l 383 360 l 383 443 l 187 443 q 59 496 184 443 q 88 969 88 947 q 90 975 90 972 z "},"6":{"ha":638,"x_min":-30,"x_max":606,"o":"m 347 972 q 582 851 529 972 q 606 726 606 779 l 457 696 l 456 699 l 456 701 q 403 807 456 774 q 356 817 378 817 l 336 817 q 253 743 272 817 q 240 585 240 693 l 240 562 q 408 618 302 618 l 429 618 q 606 492 563 618 l 606 211 l 542 211 l 542 192 l 606 192 l 606 122 l 589 122 l 589 77 l 484 77 l 484 24 l 184 24 l 184 97 l 84 97 l 84 347 l 148 347 l 148 370 l 84 370 l 84 347 l -30 347 l -30 370 l 65 370 q 64 470 65 393 q 106 843 64 779 q 206 946 135 911 q 347 972 266 972 m 246 375 l 246 181 l 421 181 l 421 228 l 444 228 l 444 392 l 399 392 l 399 470 l 398 470 q 345 473 363 470 q 258 427 276 473 q 246 375 246 402 m 250 11 l 465 11 l 465 0 l 250 0 l 250 11 z "},"7":{"ha":585,"x_min":18,"x_max":549,"o":"m 28 972 l 549 972 l 549 853 q 517 784 549 850 q 421 507 467 669 l 498 507 l 498 480 l 418 480 l 418 487 l 419 507 l 355 507 l 355 480 l 418 480 l 418 368 l 375 368 l 375 230 l 322 230 l 322 0 l 94 0 l 94 38 l 130 38 l 130 322 l 178 322 l 178 492 l 222 492 q 355 801 277 644 q 360 809 357 801 l 22 809 l 18 810 q 20 815 20 814 q 28 972 20 832 z "},"8":{"ha":665,"x_min":36,"x_max":667,"o":"m 315 972 q 573 730 573 972 l 573 716 q 522 545 573 612 l 522 467 l 564 467 l 564 155 l 517 155 l 517 131 l 564 131 l 564 41 l 465 41 l 465 0 l 69 0 l 69 279 l 109 279 l 109 300 l 52 300 l 36 298 l 36 451 l 58 451 q 136 517 87 499 l 136 518 q 54 705 58 559 q 148 936 54 882 q 315 972 208 972 m 234 732 q 269 591 234 614 q 317 572 288 578 q 366 593 342 576 q 398 709 398 618 l 398 743 q 326 821 398 821 l 313 821 q 234 732 234 821 m 564 500 l 667 500 l 667 467 l 564 467 l 564 500 m 227 444 l 227 368 l 203 368 l 203 169 l 300 169 l 300 191 l 398 191 l 398 444 l 227 444 z "},"9":{"ha":696,"x_min":-36,"x_max":662,"o":"m 368 973 q 608 850 556 973 q 644 575 644 787 l 662 575 l 662 219 l 623 219 l 623 62 l 501 62 l 501 26 l 156 26 l 156 120 l 95 120 l 95 248 l 249 248 q 275 192 256 211 q 364 162 307 162 q 443 218 420 162 l 443 356 l 279 356 q 115 463 161 356 q 96 537 104 490 l 172 537 l 172 564 l 93 564 q 90 635 90 602 q 144 897 90 840 q 368 973 202 973 m 276 654 l 276 636 q 312 517 276 543 q 369 503 340 503 q 449 551 427 503 q 458 587 458 572 l 458 669 q 421 804 458 783 q 366 814 399 814 q 286 750 302 814 q 276 654 276 707 m -36 564 l 93 564 q 96 537 96 546 l -36 537 l -36 564 m 214 14 l 460 14 l 460 0 l 214 0 l 214 14 z "}," ":{"ha":345,"x_min":0,"x_max":0,"o":""},"!":{"ha":479,"x_min":131,"x_max":348,"o":"m 131 972 l 348 972 q 319 298 321 369 l 318 290 l 159 290 l 131 972 m 161 182 l 321 182 l 321 3 q 318 0 321 0 l 161 0 q 158 3 158 0 l 158 179 q 161 182 158 182 z "},"\"":{"ha":456,"x_min":68,"x_max":390,"o":"m 134 751 l 113 751 l 71 995 q 68 1017 68 1010 q 82 1056 68 1042 q 123 1069 96 1069 q 164 1056 149 1069 q 178 1018 178 1043 q 176 995 178 1013 l 134 751 m 345 751 l 325 751 l 283 995 q 280 1017 280 1010 q 294 1056 280 1042 q 334 1069 308 1069 q 375 1056 361 1069 q 390 1018 390 1043 q 387 995 390 1013 l 345 751 z "},"#":{"ha":686,"x_min":13,"x_max":673,"o":"m 245 971 q 388 952 388 956 q 337 715 388 947 l 454 715 l 507 971 q 653 952 530 969 l 602 715 l 673 715 l 673 585 l 574 585 q 566 536 566 542 l 651 536 l 651 514 l 561 514 l 537 382 l 631 382 l 631 253 l 513 253 l 513 173 l 478 173 l 478 0 l 373 0 l 373 287 l 303 287 l 303 256 l 233 256 l 233 142 l 195 142 l 195 0 l 87 0 l 87 192 l 120 192 l 120 273 l 15 273 q 13 380 13 353 l 16 382 l 121 382 q 162 585 128 422 l 59 585 l 59 715 l 189 715 q 243 971 237 943 l 245 971 m 311 585 q 271 382 311 579 l 387 382 q 425 585 387 385 l 311 585 m 496 536 l 496 514 l 557 514 q 564 536 562 514 l 496 536 z "},"$":{"ha":573,"x_min":0,"x_max":565,"o":"m 252 970 l 359 970 l 359 880 q 446 848 416 870 q 486 801 474 823 q 517 673 517 734 l 515 673 q 393 666 425 666 q 366 740 393 710 q 319 754 340 754 l 297 754 q 228 710 240 754 q 225 690 225 698 l 225 679 q 290 589 225 617 q 381 548 296 585 q 465 496 427 527 l 465 495 l 326 495 l 326 479 l 509 479 l 509 457 l 532 457 l 532 218 l 487 218 l 487 94 l 359 94 l 359 0 l 252 0 l 252 94 l 136 94 l 136 218 l 53 218 l 53 300 l 100 300 l 100 329 l 53 329 l 53 349 l 214 349 l 214 218 l 378 218 l 378 414 l 255 414 l 255 479 l 102 479 l 102 495 l 176 495 l 176 496 q 79 679 79 561 l 79 689 q 185 865 79 822 q 252 880 233 880 l 252 970 m 509 495 l 565 495 l 565 479 l 509 479 l 509 495 m 0 329 l 53 329 l 53 300 l 0 300 l 0 329 z "},"%":{"ha":1092,"x_min":42,"x_max":1050,"o":"m 304 989 q 434 956 371 989 q 532 862 496 923 q 567 732 567 800 q 533 605 567 665 q 436 510 498 544 q 304 475 373 475 q 174 510 237 475 q 77 605 111 544 q 42 732 42 665 q 77 862 42 800 q 175 956 113 923 q 304 989 238 989 m 140 723 q 177 605 149 661 q 250 521 206 550 q 327 494 288 494 q 336 494 332 494 q 414 530 378 496 q 463 623 449 564 q 472 698 472 659 q 469 742 472 720 q 431 861 461 805 q 359 945 401 917 q 281 971 319 971 l 273 971 q 197 936 232 969 q 147 844 161 903 q 137 765 137 805 q 140 723 137 744 m 201 -20 l 839 971 l 896 971 l 260 -20 l 201 -20 m 787 500 q 916 467 853 500 q 1015 372 979 433 q 1050 243 1050 311 q 1016 115 1050 176 q 919 20 981 54 q 787 -14 856 -14 q 656 20 719 -14 q 559 115 594 54 q 525 243 525 176 q 560 372 525 311 q 658 467 595 433 q 787 500 721 500 m 623 233 q 660 116 631 171 q 732 31 689 60 q 811 5 772 5 l 819 5 q 897 41 861 7 q 946 133 932 75 q 955 208 955 170 q 952 252 955 230 q 914 371 944 315 q 842 456 884 427 q 764 481 802 481 l 756 481 q 680 446 715 479 q 630 355 644 413 q 620 275 620 315 q 623 233 620 254 z "},"&":{"ha":1141,"x_min":103,"x_max":1124,"o":"m 713 133 l 337 596 q 215 538 257 596 q 174 399 174 479 q 198 276 174 338 q 267 165 222 215 q 378 79 315 109 q 510 49 441 49 q 625 72 570 49 q 713 133 680 94 m 945 0 q 851 17 907 0 q 738 106 795 34 q 619 23 692 56 q 456 -11 546 -11 q 202 91 300 -11 q 103 353 103 193 q 155 533 103 462 q 307 636 206 605 q 265 715 279 677 q 251 790 251 752 q 303 924 251 861 q 427 986 355 986 q 523 960 473 986 q 535 956 529 956 q 561 986 551 956 l 592 986 l 657 795 l 626 795 q 521 916 589 886 q 425 941 463 941 q 353 910 381 941 q 326 831 326 880 q 395 650 326 742 l 755 195 q 837 361 821 294 q 848 449 848 414 q 806 515 848 515 l 745 515 l 745 549 l 1046 549 l 1046 515 l 985 515 q 886 361 920 515 q 781 163 865 271 q 949 71 855 71 l 960 71 q 1090 157 1057 82 l 1124 157 l 1054 0 l 945 0 z "},"'":{"ha":235,"x_min":68,"x_max":178,"o":"m 134 751 l 113 751 l 71 995 q 68 1017 68 1010 q 82 1056 68 1042 q 123 1069 96 1069 q 164 1056 149 1069 q 178 1018 178 1043 q 176 995 178 1013 l 134 751 z "},"(":{"ha":514,"x_min":171,"x_max":475,"o":"m 171 408 q 238 767 172 595 q 420 1067 304 939 l 475 1067 q 319 770 358 903 q 280 415 280 639 l 280 400 q 319 46 280 176 q 475 -251 358 -87 l 420 -251 q 238 48 304 -123 q 171 408 172 220 z "},")":{"ha":514,"x_min":39,"x_max":343,"o":"m 94 -251 l 39 -251 q 195 46 156 -87 q 234 400 234 176 l 234 415 q 195 770 234 639 q 39 1067 156 903 l 94 1067 q 276 767 210 939 q 343 408 342 595 q 276 48 342 220 q 94 -251 210 -123 z "},"*":{"ha":694,"x_min":148,"x_max":546,"o":"m 338 878 q 313 966 335 926 q 288 1023 288 1010 q 303 1058 288 1044 q 346 1071 319 1071 q 388 1059 371 1071 q 404 1027 404 1046 q 380 966 404 1013 q 355 878 357 925 q 431 929 399 895 q 478 970 466 966 q 492 972 486 972 q 516 966 505 972 q 542 930 534 954 q 546 905 546 917 q 543 886 546 895 q 517 861 536 866 q 505 859 513 859 q 453 865 488 859 q 416 869 434 869 q 361 861 388 869 q 432 805 391 824 q 486 773 478 783 q 494 747 494 761 q 493 736 494 741 q 467 700 488 715 q 427 685 447 685 q 426 686 426 685 q 393 701 405 686 q 378 765 385 713 q 347 850 372 810 q 315 766 321 810 q 302 705 309 715 q 269 686 289 688 l 265 686 q 227 701 246 686 q 200 735 206 715 q 197 749 197 742 q 205 770 197 760 q 261 805 214 782 q 332 861 302 825 q 278 868 304 868 q 242 865 260 868 q 189 857 205 857 q 180 859 183 857 q 152 884 159 865 q 148 904 148 893 q 152 928 148 916 q 176 964 159 952 q 199 972 188 972 q 212 970 205 972 q 262 928 225 966 q 338 878 294 895 z "},"+":{"ha":688,"x_min":59,"x_max":629,"o":"m 296 439 l 59 439 l 59 534 l 296 534 l 296 784 l 297 785 l 391 785 l 391 534 l 628 534 l 629 533 l 629 439 l 391 439 l 391 188 l 296 188 l 296 439 z "},",":{"ha":378,"x_min":81,"x_max":252,"o":"m 161 175 q 221 131 191 175 q 252 28 252 86 q 203 -126 252 -46 q 109 -205 155 -205 l 109 -176 q 168 -47 159 -147 q 81 62 168 33 l 81 90 l 161 175 z "},"-":{"ha":454,"x_min":79,"x_max":376,"o":"m 106 277 q 79 296 79 277 l 79 353 q 106 372 79 372 l 348 372 q 376 353 376 372 l 376 296 q 349 277 376 277 l 106 277 z "},".":{"ha":338,"x_min":103,"x_max":240,"o":"m 103 153 l 237 153 q 240 151 240 153 l 240 3 q 237 0 240 0 l 106 0 q 103 3 103 0 l 103 153 z "},"/":{"ha":386,"x_min":9,"x_max":430,"o":"m 63 -34 l 9 -34 l 376 972 l 430 972 l 63 -34 z "},":":{"ha":378,"x_min":87,"x_max":257,"o":"m 98 113 l 154 170 q 174 180 164 180 q 195 169 182 180 l 249 111 q 257 91 257 100 q 248 70 257 81 l 193 10 q 174 -3 180 -3 q 154 6 163 -3 l 94 75 q 87 92 87 83 q 98 113 87 102 m 98 583 l 154 640 q 174 650 164 650 q 195 639 182 650 l 249 581 q 257 561 257 570 q 248 540 257 551 l 193 480 q 174 467 180 467 q 154 476 163 467 l 94 545 q 87 562 87 553 q 98 583 87 572 z "},";":{"ha":378,"x_min":81,"x_max":257,"o":"m 98 583 l 154 640 q 174 649 164 649 q 195 638 182 649 l 249 580 q 257 560 257 569 q 248 539 257 550 l 193 479 q 174 466 180 466 q 154 475 163 466 l 94 544 q 87 562 87 553 q 98 583 87 572 m 161 175 q 221 131 191 175 q 252 28 252 86 q 203 -126 252 -46 q 109 -205 155 -205 l 109 -176 q 168 -47 159 -147 q 81 62 168 33 l 81 90 l 161 175 z "},"<":{"ha":688,"x_min":59,"x_max":629,"o":"m 629 728 l 205 485 l 629 244 l 629 131 l 59 457 l 59 513 l 629 842 l 629 728 z "},"=":{"ha":688,"x_min":59,"x_max":629,"o":"m 59 428 l 629 428 l 629 333 l 59 333 l 59 428 m 59 640 l 629 640 l 629 545 l 59 545 l 59 640 z "},">":{"ha":688,"x_min":59,"x_max":629,"o":"m 59 842 l 629 513 l 629 457 l 59 131 l 59 244 l 483 485 l 59 728 l 59 842 z "},"?":{"ha":547,"x_min":16,"x_max":539,"o":"m 276 975 l 296 975 q 524 855 481 975 q 539 758 539 810 l 539 740 q 407 500 539 613 q 368 456 407 499 q 331 359 331 408 q 355 269 331 334 l 191 269 q 163 373 163 314 q 222 537 163 467 q 317 647 242 563 q 357 743 357 690 l 357 749 q 323 812 357 802 q 279 819 308 819 q 182 693 182 819 q 16 705 172 693 q 51 866 18 785 q 276 975 109 975 m 199 181 l 357 181 l 357 0 l 199 0 q 196 3 196 0 l 196 178 q 199 181 196 181 z "},"@":{"ha":974,"x_min":28,"x_max":949,"o":"m 507 972 l 522 972 q 868 814 734 972 q 949 567 949 713 q 789 243 949 374 q 659 194 725 194 l 656 194 q 578 248 597 194 q 577 266 577 259 l 577 276 q 393 194 509 194 q 226 311 281 194 q 212 385 212 347 l 212 397 q 336 691 212 547 q 522 776 422 776 l 541 776 q 686 713 622 776 q 713 664 709 682 l 714 664 q 748 753 714 667 l 760 751 l 776 751 q 614 323 632 375 q 606 271 606 290 q 659 222 606 222 l 661 222 q 882 397 779 222 q 920 569 920 477 q 686 915 920 809 q 522 943 604 943 l 507 943 q 140 756 283 943 q 57 487 57 642 q 331 60 57 174 q 512 28 412 28 q 876 208 724 28 q 903 241 901 241 l 933 241 q 656 22 850 95 q 512 0 583 0 q 117 182 273 0 q 28 492 28 304 q 277 915 28 766 q 507 972 386 972 m 241 395 l 241 381 q 316 244 241 295 q 400 222 351 222 q 623 430 562 222 q 699 631 699 623 q 646 713 683 688 q 535 747 594 747 l 515 747 q 261 513 359 747 q 241 395 241 450 z "},"A":{"ha":704,"x_min":-44,"x_max":706,"o":"m 307 971 l 470 971 q 629 441 473 957 l 659 441 l 659 121 l 591 121 l 591 96 l 659 96 l 659 28 l 478 28 l 478 224 l 257 224 l 257 141 l 168 141 l 168 0 l 3 0 l 3 9 l 16 9 l 16 141 l 83 141 l 83 413 l 139 413 l 307 971 m 383 698 l 383 696 q 302 331 362 581 l 454 331 l 454 441 l 441 441 q 387 698 387 677 l 383 698 m 94 462 l 109 462 q 115 452 109 456 q 121 462 115 458 l 133 462 l 133 460 q 121 442 121 444 q 134 422 124 436 l 134 419 l 128 419 q 115 433 119 419 q 103 419 104 419 l 95 419 q 92 422 92 419 q 105 441 94 422 l 105 444 q 94 462 94 460 m -44 442 l 83 442 l 83 413 l -44 413 l -44 442 m 663 421 l 698 421 l 698 413 l 677 387 l 696 387 q 699 383 699 386 l 699 380 q 696 376 699 376 l 662 376 l 662 385 l 683 411 l 663 411 l 663 421 m 413 378 l 422 378 l 422 362 l 441 378 l 450 378 l 450 376 l 436 360 q 452 334 452 337 l 442 334 q 427 352 441 334 q 422 347 425 352 l 422 334 l 413 334 l 413 378 m 667 363 l 686 363 q 701 349 701 361 l 696 340 q 701 321 701 335 l 701 319 l 691 319 q 686 336 690 336 l 675 336 l 675 319 l 667 319 q 663 323 663 319 l 663 360 q 667 363 664 363 m 675 354 l 675 344 l 686 344 q 690 347 690 344 l 690 354 l 675 354 m 663 307 l 694 307 q 698 303 698 306 l 698 300 q 694 296 698 296 l 685 296 l 685 262 l 673 262 l 673 296 l 663 296 q 660 300 660 296 l 660 303 q 663 307 661 307 m 660 249 l 668 249 q 678 221 673 249 l 680 221 q 688 249 688 245 l 699 249 q 683 205 686 205 l 673 205 l 660 249 m 307 212 l 307 203 q 280 192 307 200 l 280 190 l 307 180 l 307 170 l 265 185 l 265 197 l 307 212 m 52 192 l 58 192 q 75 147 63 192 l 66 147 q 62 157 66 149 l 47 157 q 43 147 46 147 l 35 147 q 52 192 49 192 m 682 192 l 686 192 q 706 169 703 192 q 685 146 701 146 q 662 169 662 150 q 682 192 665 192 m 673 170 l 673 169 q 682 155 673 160 l 686 155 q 694 169 694 160 l 694 170 q 683 183 693 183 q 673 170 673 180 m 54 177 q 51 165 51 166 l 59 165 l 56 177 l 54 177 m 478 16 l 696 16 l 696 0 l 478 0 l 478 16 z "},"B":{"ha":672,"x_min":0,"x_max":668,"o":"m 37 972 l 313 972 q 547 879 496 972 q 575 746 575 830 l 575 678 q 492 524 575 583 q 564 480 520 519 l 585 480 q 638 399 626 438 q 642 384 642 385 l 668 384 l 668 368 l 580 368 l 580 384 l 399 384 l 399 435 l 221 435 l 221 153 l 332 153 l 332 173 l 399 173 l 399 368 l 580 368 l 580 196 l 600 196 l 600 88 l 540 88 l 540 63 l 600 63 l 600 18 l 370 18 l 370 0 l 119 0 l 119 18 l 65 18 l 65 168 l 140 168 l 140 208 l 65 208 q 63 377 63 321 l 63 449 l 0 449 l 0 467 l 63 467 l 63 505 l 33 505 l 33 968 q 37 972 34 972 m 224 808 l 224 567 l 266 567 q 362 591 339 567 q 385 698 385 611 l 385 701 q 362 791 385 776 q 256 808 347 808 l 224 808 m 65 467 l 65 449 l 155 449 l 155 467 l 65 467 m 28 446 l 62 446 l 62 439 q 58 435 62 435 l 38 435 l 38 429 l 56 429 q 60 425 60 428 l 60 422 q 56 418 60 418 l 38 418 l 38 410 l 62 410 l 62 404 q 58 401 62 401 l 28 401 l 28 446 m 307 384 l 399 384 l 399 368 l 307 368 l 307 384 m 606 364 l 612 364 q 615 361 615 363 l 615 332 q 600 317 612 317 q 585 332 585 320 l 585 334 q 588 337 585 337 l 591 337 q 597 328 595 337 l 603 328 l 603 361 q 606 364 604 364 m 591 306 l 605 306 q 628 281 628 306 q 606 261 628 264 l 588 261 l 588 302 q 591 306 589 306 m 600 296 l 600 271 l 606 271 q 616 281 616 271 l 616 284 q 605 296 616 296 l 600 296 m 591 248 l 616 248 q 620 244 620 247 l 620 237 l 600 237 l 600 229 l 616 229 l 616 221 l 600 221 l 600 206 q 597 203 600 203 l 588 203 l 588 244 q 591 248 589 248 m 359 221 l 394 221 l 394 213 l 372 186 l 395 186 l 395 180 q 392 176 395 176 l 361 176 q 357 180 357 176 l 357 184 l 379 211 l 362 211 q 359 214 359 211 l 359 221 m 226 193 l 228 193 q 259 180 259 183 l 259 176 q 228 161 256 172 l 226 165 l 226 166 q 246 176 226 171 q 226 186 246 180 l 226 193 z "},"C":{"ha":718,"x_min":24,"x_max":807,"o":"m 379 972 q 635 845 583 972 q 650 804 650 814 l 565 804 l 565 778 l 656 778 l 656 779 q 650 804 656 786 l 807 804 l 807 778 l 659 778 l 659 776 q 675 659 670 722 q 496 646 675 655 l 496 647 q 385 809 496 809 l 366 809 q 264 739 283 809 q 250 582 250 679 l 250 450 l 248 430 l 186 430 l 186 399 l 248 399 l 248 163 l 510 163 l 510 408 l 660 408 l 660 163 l 576 163 l 576 13 l 402 13 l 402 0 l 267 0 l 267 13 l 129 13 l 129 88 l 220 88 l 220 121 l 83 121 l 83 232 l 24 232 l 24 369 l 56 369 q 54 503 54 454 q 75 783 54 725 q 140 897 95 849 q 379 972 221 972 m 261 212 l 269 212 l 269 178 l 289 178 l 289 168 l 261 168 q 258 172 258 168 l 258 209 q 261 212 258 212 m 465 212 l 475 212 q 484 199 484 205 q 495 212 485 199 l 503 212 l 503 209 q 492 188 492 194 q 505 170 494 188 l 505 168 l 495 168 l 484 181 q 474 168 477 170 l 464 168 q 479 191 467 175 l 465 211 l 465 212 m 600 153 q 616 144 616 149 l 616 137 l 609 137 l 603 144 l 596 144 q 593 140 593 143 l 593 137 q 618 126 618 132 l 618 121 q 603 108 618 108 l 596 108 q 582 117 587 108 l 582 124 l 591 124 q 601 116 591 116 l 603 116 q 608 121 605 116 q 585 132 608 123 l 583 136 l 583 144 q 600 153 583 149 z "},"D":{"ha":724,"x_min":-39,"x_max":877,"o":"m 48 971 l 343 971 q 598 846 528 971 q 656 521 656 747 l 686 521 l 686 289 l 399 289 l 399 315 l 488 315 l 488 521 l 463 521 l 463 606 q 399 788 463 749 q 278 810 361 810 l 239 810 l 239 526 l 265 526 l 265 289 l 71 289 l 71 507 l 48 507 l 48 971 m 467 361 l 477 361 l 477 336 l 482 336 l 482 328 l 477 328 l 477 318 l 467 318 l 467 328 l 450 328 l 450 334 q 467 361 467 359 m 459 336 l 467 336 l 467 346 q 459 336 465 346 m 275 338 l 284 338 q 294 326 286 338 q 301 338 301 334 l 312 338 l 312 336 q 301 317 301 321 l 314 296 l 301 296 q 293 309 301 301 q 283 296 287 296 l 273 296 q 288 317 284 315 l 275 338 m -39 289 l 50 289 l 50 258 l 265 258 l 265 194 l 399 194 l 399 258 l 686 258 l 686 194 l 488 194 l 488 21 l 265 21 l 265 0 l 51 0 q 48 3 48 0 l 48 258 l -39 258 l -39 289 m 265 289 l 399 289 l 399 258 l 265 258 l 265 289 m 686 289 l 877 289 l 877 258 l 686 258 l 686 289 m 511 188 l 523 188 q 537 144 534 156 l 529 144 q 524 153 526 144 l 511 153 q 507 144 508 153 l 496 144 l 496 145 q 511 188 496 146 m 549 188 l 559 188 l 567 160 l 568 160 q 576 188 568 163 l 587 188 q 573 144 587 182 l 564 144 q 549 188 559 144 m 603 188 l 614 188 l 614 144 l 603 144 l 603 188 m 633 188 l 652 188 q 673 163 673 188 q 652 144 673 146 l 633 144 l 633 188 m 645 178 l 645 153 l 655 153 q 661 160 657 153 l 661 172 q 655 178 661 174 l 645 178 m 516 174 q 513 161 516 172 l 521 161 q 518 174 518 172 l 516 174 z "},"E":{"ha":602,"x_min":-71,"x_max":567,"o":"m 85 971 l 564 971 l 564 812 q 560 809 564 809 l 276 809 l 276 598 l 531 598 l 531 597 q 528 494 531 587 q 526 492 526 494 l 538 492 l 538 443 l 317 443 l 317 243 l 258 243 l 258 224 l 317 224 l 317 163 l 567 163 l 567 140 l 547 140 l 547 21 l 248 21 l 248 0 l 106 0 l 106 348 l 85 348 l 85 471 l -71 471 l -71 492 l 85 492 l 85 971 m 86 492 l 86 471 l 166 471 l 166 492 l 86 492 m 332 212 l 343 212 l 343 196 l 345 196 q 359 212 345 201 l 371 212 l 355 195 l 372 168 l 361 168 q 347 186 348 186 q 343 183 343 186 l 343 168 l 332 168 l 332 212 m 389 212 l 412 212 q 427 199 422 212 q 420 188 427 197 q 427 168 425 188 l 418 168 q 413 184 415 168 l 400 184 l 400 168 l 389 168 l 389 212 m 463 212 l 469 212 q 487 193 484 212 l 487 186 q 482 175 487 181 l 482 173 q 487 170 487 173 q 482 165 487 168 q 477 170 479 165 l 469 168 l 463 168 q 444 193 446 168 q 463 212 449 212 m 456 193 l 456 188 q 467 176 456 176 l 469 176 l 469 178 l 466 178 l 466 180 q 471 184 466 182 l 475 182 q 477 191 475 182 q 464 204 476 204 q 456 193 456 202 m 400 203 l 400 193 l 412 193 q 415 196 415 193 l 415 199 q 412 203 415 203 l 400 203 m 557 131 l 567 131 l 567 129 q 562 100 567 100 q 557 121 557 100 l 557 131 m 557 98 l 567 98 l 567 88 l 557 88 l 557 98 z "},"F":{"ha":584,"x_min":28,"x_max":537,"o":"m 50 971 l 537 971 l 537 810 l 243 810 l 243 579 l 496 579 l 500 577 l 498 574 q 496 517 496 525 l 469 517 l 469 515 q 465 440 469 498 l 491 440 q 486 412 491 412 l 308 412 l 308 379 l 215 379 l 215 361 l 243 361 l 243 277 l 336 277 l 336 262 l 243 262 l 243 26 l 241 15 l 141 15 l 141 0 l 53 0 q 50 3 50 0 l 50 28 l 52 44 l 99 44 l 99 68 l 50 68 l 50 162 l 73 162 l 73 505 l 112 505 l 112 530 l 50 530 l 50 971 m 33 327 l 40 327 q 43 323 43 327 l 43 301 q 48 291 44 291 l 55 291 q 60 296 57 291 l 60 323 q 63 327 60 327 l 69 327 l 69 296 q 50 281 69 281 q 33 296 33 283 l 33 327 m 246 311 l 248 311 q 277 299 273 299 l 277 290 l 248 279 l 246 279 l 246 285 q 266 294 246 287 l 266 296 q 246 302 262 296 l 246 311 m 153 277 l 153 262 l 241 262 l 241 277 l 153 277 m 47 270 l 48 270 q 66 255 66 270 l 55 255 q 47 262 55 262 q 41 257 44 262 q 66 243 66 248 q 68 239 66 242 q 48 224 68 227 q 30 241 30 227 l 41 241 q 45 234 41 234 l 53 234 q 56 237 56 234 l 56 241 q 32 254 32 247 l 32 260 q 47 270 37 270 m 30 213 l 35 213 q 48 199 45 213 l 60 213 l 68 213 l 68 210 q 56 188 56 194 q 69 170 58 188 l 69 168 l 60 168 q 48 182 58 168 q 38 168 42 170 l 28 168 q 43 190 40 189 q 30 213 30 210 z "},"G":{"ha":718,"x_min":0,"x_max":716,"o":"m 361 972 l 363 972 q 629 831 581 972 q 652 682 652 778 l 494 661 l 492 665 l 492 668 q 414 805 492 783 q 357 813 391 811 q 248 723 273 813 q 234 581 234 663 l 234 505 q 237 305 234 372 l 277 305 l 277 170 l 471 170 l 471 401 l 349 401 l 349 526 l 716 526 l 716 498 l 668 498 l 668 355 l 570 355 l 570 310 l 618 310 l 618 34 l 92 34 l 92 180 l 33 180 l 33 193 l 58 193 l 58 208 l 92 208 l 92 263 l 0 263 l 0 380 l 43 380 q 42 440 42 432 q 76 813 42 749 q 132 902 85 853 q 361 972 201 972 m 252 361 l 261 361 l 261 318 l 252 318 l 252 361 m 647 303 q 658 295 657 300 l 658 289 q 652 282 658 286 q 653 277 653 279 l 656 277 l 656 281 l 665 281 l 665 279 q 661 271 665 271 q 669 260 661 269 l 660 260 l 655 263 q 642 258 648 258 q 629 273 631 258 q 637 282 631 279 q 635 295 635 291 q 647 303 635 300 m 644 292 q 645 287 645 289 q 650 292 648 287 q 647 295 650 295 q 644 292 644 295 m 642 277 l 639 273 l 639 271 q 644 266 639 269 q 650 271 650 269 l 642 277 m 647 234 q 658 226 657 231 l 658 219 q 652 213 658 217 q 653 208 653 210 l 656 208 l 656 212 l 665 212 l 665 210 q 661 201 665 201 q 669 191 661 200 l 660 191 l 655 193 q 642 189 648 189 q 629 203 631 189 q 637 213 631 210 q 635 226 635 222 q 647 234 635 231 m 644 222 q 645 218 645 220 q 650 222 648 218 q 647 226 650 226 q 644 222 644 225 m 308 222 q 329 203 329 219 l 329 199 q 308 178 328 178 l 307 178 q 287 201 287 178 q 308 222 292 222 m 345 221 l 380 221 l 380 212 l 370 212 l 370 180 q 366 178 370 178 l 361 178 q 358 180 358 178 l 358 212 l 349 212 q 345 214 345 212 l 345 221 m 298 201 l 298 193 q 305 187 298 191 l 313 187 q 319 200 318 187 q 311 213 319 208 l 310 213 q 298 201 298 213 m 642 208 l 639 203 l 639 201 q 644 197 639 199 q 650 201 650 199 q 642 208 643 208 m 645 165 q 658 157 653 165 l 658 150 q 652 144 658 147 q 653 139 653 140 l 656 139 l 656 142 l 665 142 l 665 140 q 661 132 665 132 q 669 121 661 131 l 660 121 l 655 124 q 642 119 648 119 q 629 134 631 119 q 637 144 631 140 l 635 155 l 635 157 q 645 165 635 159 m 644 153 q 645 149 645 150 q 650 153 648 149 q 647 157 650 157 q 644 153 644 156 m 642 139 l 639 134 l 639 132 q 644 127 639 130 q 650 132 650 130 l 642 139 m 645 95 q 658 87 653 95 l 658 81 q 652 74 658 78 q 653 69 653 71 l 656 69 l 656 73 l 665 73 l 665 71 l 661 60 q 669 52 663 60 l 660 52 l 655 55 q 642 50 648 50 q 629 64 631 50 q 637 74 631 71 l 635 85 l 635 87 q 645 95 635 90 m 644 84 q 645 79 645 81 q 650 84 648 79 q 647 87 650 87 q 644 84 644 87 m 642 69 l 639 64 l 639 63 q 644 58 639 60 q 650 63 650 60 l 642 69 m 227 20 l 427 20 l 427 0 l 227 0 l 227 20 z "},"H":{"ha":667,"x_min":36,"x_max":673,"o":"m 36 972 l 229 972 l 229 585 l 423 585 l 423 972 l 587 972 l 587 420 l 519 420 l 519 395 l 587 395 l 587 0 l 427 0 q 423 3 423 0 l 423 423 l 229 423 l 229 3 q 225 0 229 0 l 64 0 l 64 507 l 36 507 l 36 972 m 587 420 l 673 420 l 673 395 l 587 395 l 587 420 z "},"I":{"ha":271,"x_min":0,"x_max":241,"o":"m 56 972 l 239 972 q 241 968 241 971 l 241 496 q 239 493 241 493 l 217 493 l 217 3 q 214 0 217 0 l 56 0 q 52 3 52 0 l 52 505 l 3 505 q 0 508 0 505 l 0 529 q 3 532 1 532 l 52 532 l 52 968 q 56 972 53 972 m 54 532 l 54 505 l 147 505 l 147 532 l 54 532 z "},"J":{"ha":571,"x_min":0,"x_max":533,"o":"m 347 971 l 533 971 l 533 652 l 514 652 l 514 306 l 533 306 l 533 27 l 85 27 l 85 87 l 0 87 l 0 197 l 52 197 l 52 216 l 0 216 l 0 240 l 184 240 l 184 172 l 348 172 l 348 266 q 347 398 348 314 l 203 398 l 203 412 l 347 412 l 347 971 m 348 412 l 348 398 l 403 398 l 403 412 l 348 412 m 189 13 l 427 13 l 427 0 l 189 0 l 189 13 z "},"K":{"ha":637,"x_min":32,"x_max":625,"o":"m 32 972 l 223 972 l 223 789 q 220 592 223 698 l 220 590 l 222 590 q 351 821 245 635 q 405 963 405 915 l 405 972 l 601 972 l 601 968 q 524 764 601 874 l 408 595 l 522 351 l 625 351 l 625 322 l 509 322 l 509 320 q 545 248 537 260 l 566 248 l 566 160 l 596 160 l 596 1 q 522 0 546 0 l 475 0 q 406 1 450 0 l 406 108 l 363 108 l 363 248 l 339 248 l 313 322 l 507 322 l 507 351 l 330 351 q 298 450 330 355 l 296 450 q 231 351 280 418 l 313 351 l 313 322 l 223 322 l 223 275 l 212 275 l 212 52 l 223 52 l 223 3 q 220 0 223 0 l 35 0 q 32 3 32 0 l 32 80 l 119 80 l 119 113 l 32 113 l 32 972 m 527 401 l 537 401 q 547 374 541 401 q 557 401 549 374 l 571 401 l 571 359 q 568 356 571 356 l 562 356 l 562 382 l 560 382 q 552 356 560 380 l 547 356 q 537 379 542 356 l 535 379 l 535 359 q 532 356 535 356 l 527 356 q 524 359 524 356 l 524 397 q 527 401 524 401 m 111 351 l 111 322 l 222 322 q 230 351 222 328 l 111 351 m 366 101 l 375 101 q 385 90 377 101 q 393 101 391 101 l 403 101 l 403 100 l 390 80 q 405 59 393 79 l 391 59 l 385 72 q 374 59 375 59 l 363 59 q 378 80 375 79 l 366 100 l 366 101 z "},"L":{"ha":523,"x_min":12,"x_max":525,"o":"m 12 972 l 205 972 l 205 573 l 168 573 l 168 161 l 454 161 l 454 75 l 397 75 l 397 56 l 454 56 l 454 0 l 269 0 l 269 15 l 14 15 q 12 39 12 31 l 12 256 l 61 256 l 61 286 l 12 286 l 12 972 m 180 212 l 192 212 q 201 201 200 201 q 210 212 207 212 l 220 212 q 207 193 218 207 q 221 170 210 186 l 210 170 q 201 183 201 177 q 190 170 200 183 l 180 170 l 180 172 l 193 191 l 193 193 l 180 212 m 454 75 l 525 75 l 525 56 l 454 56 l 454 75 z "},"M":{"ha":920,"x_min":0,"x_max":925,"o":"m 15 972 l 232 972 q 380 448 268 842 l 465 448 q 493 543 469 448 q 614 972 547 728 l 815 972 l 815 342 l 827 342 l 827 227 l 766 227 l 766 205 l 827 205 l 827 0 l 656 0 l 656 75 l 677 75 l 677 309 l 641 309 l 641 425 l 619 425 l 618 419 l 600 419 l 600 253 l 541 253 l 541 176 l 490 176 l 490 44 l 370 44 l 370 128 l 296 128 l 296 243 l 252 243 l 252 363 l 227 363 q 210 425 225 373 l 382 425 l 378 448 l 205 448 l 210 425 l 187 425 l 187 275 l 199 275 l 199 109 l 156 109 l 156 79 l 199 79 l 199 35 l 44 35 l 44 235 l 15 235 l 15 972 m 186 517 l 186 506 q 187 448 186 491 l 203 448 q 187 517 187 514 l 186 517 m 641 516 l 626 448 l 641 448 q 642 509 642 490 l 642 516 l 641 516 m 132 448 l 132 425 l 186 425 l 186 448 l 132 448 m 468 448 l 463 425 l 618 425 q 625 448 625 444 l 468 448 m 642 448 l 642 425 l 761 425 l 761 448 l 642 448 m 386 425 q 401 373 397 373 l 420 373 l 420 286 l 452 286 l 452 420 l 460 420 l 460 425 l 386 425 m 827 227 l 925 227 l 925 205 l 827 205 l 827 227 m 836 197 l 844 197 l 844 182 l 858 182 l 858 194 q 861 197 858 197 l 864 197 q 867 194 867 197 l 867 163 q 864 159 867 159 l 858 159 l 858 174 l 844 174 l 844 159 l 836 159 l 836 197 m 836 148 l 859 148 q 863 144 863 147 l 863 140 l 844 140 l 844 133 l 859 133 l 859 125 l 844 125 l 844 110 l 836 110 l 836 148 m 838 98 l 861 98 q 864 96 864 98 l 864 92 l 846 69 l 864 69 l 864 61 l 836 61 q 833 66 833 61 q 851 90 838 74 l 835 90 l 835 96 q 838 98 836 98 m 836 50 l 844 50 l 844 28 l 846 20 l 854 20 q 858 23 858 20 l 858 46 q 861 50 858 50 l 864 50 q 867 46 867 49 l 867 26 q 852 12 867 12 l 850 12 q 836 20 840 12 l 836 50 m 0 26 l 174 26 l 174 12 l 0 12 l 0 26 z "},"N":{"ha":743,"x_min":10,"x_max":724,"o":"m 38 972 l 237 972 q 300 816 241 972 q 425 509 306 810 l 476 509 l 476 972 l 650 972 l 650 420 l 670 420 l 670 205 l 600 205 l 600 164 l 670 164 l 670 36 l 409 36 l 409 199 l 363 199 q 237 514 269 427 l 237 678 l 212 678 l 212 179 l 173 179 l 173 7 l 10 7 l 10 378 l 40 378 l 40 379 q 38 972 38 859 m 659 670 l 677 670 q 690 656 690 670 q 685 652 690 652 q 690 637 690 646 l 690 633 l 682 633 q 677 647 680 647 l 669 647 l 669 633 l 659 633 l 659 670 m 669 662 l 669 653 l 677 653 q 680 656 680 653 l 680 662 l 669 662 m 659 621 l 686 621 l 686 612 l 677 612 l 677 585 l 667 585 l 667 612 l 659 612 q 655 616 655 612 l 655 617 q 659 621 656 621 m 655 571 l 662 571 q 670 550 666 571 l 673 550 l 678 571 l 688 571 l 677 535 l 669 535 q 655 571 665 535 m 657 522 l 667 522 q 673 512 667 516 q 682 522 679 522 l 688 522 l 688 520 q 678 503 678 505 q 690 486 681 502 l 678 486 q 672 496 678 491 q 663 486 666 486 l 655 486 q 667 504 667 503 q 657 522 657 519 m 330 509 l 330 473 l 439 473 q 422 509 426 509 l 330 509 m 478 509 l 478 473 l 440 473 q 481 359 475 386 l 483 359 l 483 364 q 478 473 478 453 l 557 473 l 557 509 l 478 509 m 659 473 l 675 473 q 692 456 692 471 l 692 455 q 677 437 692 437 l 659 437 l 659 473 m 669 465 l 669 444 q 682 453 682 444 l 682 455 q 677 465 682 463 l 669 465 m 373 189 l 397 189 l 397 180 l 380 180 l 380 174 l 394 174 q 397 171 397 174 l 397 169 q 394 165 397 165 l 380 165 l 380 159 l 396 159 q 399 156 399 159 l 399 155 q 396 151 399 151 l 373 151 q 370 155 370 151 l 370 186 q 373 189 370 189 m 176 171 l 186 171 q 193 148 193 151 l 194 148 q 202 171 198 171 l 209 171 l 209 169 q 196 134 199 134 l 187 134 q 176 171 187 139 m 386 140 l 389 140 q 393 136 393 139 l 393 115 q 385 102 393 106 l 380 102 q 368 113 368 102 l 368 117 l 376 117 q 380 110 376 110 l 382 110 l 382 136 q 386 140 383 140 m 373 90 l 376 90 q 380 77 380 90 l 394 90 l 403 90 l 403 89 l 389 74 q 404 54 391 74 l 401 52 l 396 52 q 382 67 394 52 q 378 52 380 67 l 373 52 q 370 56 370 52 l 370 87 q 373 90 370 90 m 409 18 l 724 18 l 724 0 l 409 0 l 409 18 z "},"O":{"ha":756,"x_min":-32,"x_max":802,"o":"m 373 972 q 648 825 582 972 q 685 551 685 754 l 685 546 l 613 546 l 613 513 l 685 513 l 685 163 l 637 163 l 637 36 l 543 36 l 543 0 l 214 0 l 214 36 l 173 36 l 173 163 l 88 163 l 88 262 l 139 262 l 139 313 l 88 313 l 88 262 l -32 262 l -32 313 l 59 313 q 58 496 58 433 l 58 578 q 136 887 58 809 q 373 972 208 972 m 254 637 l 256 637 l 254 634 l 254 546 l 181 546 l 181 513 l 254 513 q 252 197 252 304 l 252 163 l 415 163 l 415 216 l 490 216 l 490 218 q 488 494 490 317 q 490 532 488 501 q 467 767 490 724 q 382 809 444 809 l 358 809 q 267 745 285 809 q 254 637 259 712 m 685 546 l 802 546 l 802 513 l 685 513 l 685 546 m 693 507 l 696 507 q 703 488 701 507 q 711 507 705 488 l 715 507 q 722 486 720 507 l 724 486 l 728 507 l 736 507 l 736 505 q 726 470 729 470 l 719 470 q 714 491 719 473 l 713 491 q 706 470 710 470 l 699 470 q 690 505 694 491 l 693 507 m 696 458 l 703 458 q 713 435 707 458 l 714 435 q 720 458 714 439 l 732 458 l 732 421 l 724 421 l 724 440 l 722 440 q 714 421 718 421 l 709 421 q 705 439 705 436 l 703 439 q 699 421 703 421 l 693 421 l 693 455 q 696 458 694 458 m 691 410 l 698 410 q 706 398 706 405 q 715 410 707 398 l 722 410 l 722 406 l 713 392 q 724 374 713 391 l 724 372 l 715 372 l 706 384 q 698 372 701 372 l 690 372 q 701 392 701 389 q 691 410 691 407 m 696 361 l 706 361 q 722 349 722 361 l 722 348 l 719 343 q 724 338 722 343 l 724 332 q 707 323 720 323 l 693 323 l 693 357 q 696 361 694 361 m 703 353 l 703 346 l 713 346 l 713 353 l 703 353 m 451 353 l 460 353 l 460 340 l 472 340 l 472 349 q 475 353 473 353 l 481 353 l 481 317 l 472 317 l 472 332 l 460 332 l 460 317 l 451 317 l 451 353 m 703 340 l 703 332 l 714 332 l 714 336 q 711 340 714 340 l 703 340 m 696 312 l 718 312 q 720 309 720 311 l 720 304 l 703 304 l 703 298 l 719 298 l 719 290 l 703 290 l 703 283 l 720 283 l 720 275 l 693 275 l 693 309 q 696 312 694 312 m 451 304 l 478 304 l 478 300 q 462 276 478 294 q 480 273 480 276 l 480 268 l 449 268 l 449 275 q 465 296 461 289 l 451 296 l 451 304 m 280 257 q 296 235 294 257 q 277 218 296 220 q 260 235 260 222 q 280 257 260 257 m 460 255 l 470 255 q 484 220 470 251 l 475 220 q 472 226 472 220 l 460 226 q 457 220 457 226 l 448 220 l 448 221 q 460 255 451 227 m 271 242 l 271 235 q 280 226 271 226 q 287 235 287 227 l 287 242 q 280 249 287 245 l 277 249 q 271 242 275 249 m 464 242 l 462 234 l 469 234 q 464 242 467 242 m 277 208 q 293 198 288 208 l 293 193 l 285 193 q 275 200 285 200 l 271 193 l 271 187 q 280 177 271 177 q 288 185 281 177 l 295 185 q 277 169 295 172 q 260 187 260 174 q 277 208 262 208 z "},"P":{"ha":702,"x_min":14,"x_max":718,"o":"m 14 970 l 264 970 q 545 857 484 970 q 581 675 581 785 q 579 635 579 655 l 718 635 l 718 588 l 574 588 l 574 589 q 578 635 578 631 l 497 635 l 497 588 l 574 588 l 574 423 l 414 423 l 414 366 l 413 366 q 203 365 228 365 l 203 279 l 170 279 l 170 127 l 189 127 l 189 0 l 37 0 l 37 60 l 16 60 l 16 110 q 14 393 16 197 l 106 393 l 106 442 l 14 442 l 14 970 m 203 806 l 203 530 l 261 530 l 261 570 l 376 570 q 399 688 399 591 q 357 794 399 781 q 286 806 341 806 l 203 806 m 586 578 l 591 578 q 599 565 599 571 l 610 578 l 616 578 l 616 575 q 604 541 604 557 l 599 541 q 594 560 595 541 q 583 576 591 560 l 586 578 m 584 530 l 613 530 l 613 522 l 604 522 l 604 496 q 600 492 604 492 l 597 492 q 594 496 594 492 l 594 522 l 584 522 l 584 530 z "},"Q":{"ha":672,"x_min":-36,"x_max":684,"o":"m 313 972 q 551 845 494 972 q 583 608 583 783 l 583 604 l 522 604 l 522 576 l 583 576 l 583 273 l 543 273 l 543 163 l 461 163 l 461 56 l 496 56 l 496 0 l 340 0 l 340 62 l 238 62 l 238 163 l 124 163 l 124 273 l 68 273 l 68 358 l 111 358 l 111 403 l 68 403 l 68 358 l -36 358 l -36 403 l 43 403 q 41 560 41 505 l 41 632 q 109 899 41 831 q 313 972 171 972 m 211 682 l 212 682 l 211 680 l 211 604 l 148 604 l 148 576 l 211 576 q 210 302 210 394 l 210 273 l 273 273 l 273 319 l 415 319 l 415 320 q 413 559 415 406 q 415 591 413 565 q 395 795 415 757 q 322 831 375 831 l 301 831 q 222 775 237 831 q 211 682 216 747 m 583 604 l 684 604 l 684 576 l 583 576 l 583 604 m 591 570 l 611 570 q 614 567 614 570 l 614 563 l 599 563 l 599 557 l 608 557 q 611 555 611 557 l 611 551 l 599 551 l 599 538 l 591 538 l 591 570 m 591 528 l 603 528 q 617 521 614 528 l 617 515 l 614 511 q 618 496 617 507 l 612 496 q 607 507 611 496 q 602 508 605 508 l 599 508 l 599 496 l 591 496 l 591 528 m 599 521 l 599 514 l 607 514 q 610 517 610 514 l 610 518 q 607 521 610 521 l 599 521 m 602 486 l 607 486 l 618 454 l 612 454 q 608 460 610 454 l 597 460 l 596 454 l 589 454 l 589 455 q 602 486 598 486 m 600 466 l 606 466 l 606 467 l 604 475 q 600 466 602 475 m 393 400 q 405 392 403 397 l 405 389 l 399 389 l 393 393 l 391 393 q 388 391 388 393 q 404 383 388 389 q 406 376 406 378 q 392 366 403 366 q 380 375 385 366 l 380 379 l 387 379 q 391 374 387 374 l 398 374 l 398 376 q 382 385 398 378 q 381 391 381 387 l 381 393 q 393 400 381 397 m 397 358 q 410 341 409 358 l 410 338 l 408 328 q 410 326 410 328 q 408 323 408 326 l 402 326 l 395 324 q 380 341 380 327 q 397 358 383 358 m 388 341 q 393 332 388 334 l 397 332 l 395 334 q 398 337 395 337 l 399 337 l 402 336 q 404 340 402 337 q 395 351 404 350 q 388 341 388 349 z "},"R":{"ha":622,"x_min":24,"x_max":602,"o":"m 24 970 l 357 970 q 572 852 524 970 q 593 714 593 792 l 593 673 q 532 458 593 532 l 461 458 l 461 422 l 569 422 l 569 191 l 505 191 l 505 155 l 602 155 l 602 18 l 399 18 l 399 237 l 321 237 l 321 378 l 186 378 l 186 138 l 215 138 l 215 0 l 28 0 q 24 3 24 0 l 24 393 l 108 393 l 108 420 l 24 420 l 24 970 m 215 812 l 215 538 l 261 538 q 381 557 365 538 q 408 602 398 568 l 479 602 l 479 636 l 414 636 l 414 633 q 406 602 409 602 l 313 602 l 313 636 l 411 636 q 414 639 414 636 q 416 686 416 681 q 385 798 416 777 q 295 812 360 812 l 215 812 m 194 370 l 202 370 q 209 360 209 367 q 215 370 212 360 l 225 370 l 225 368 l 215 354 q 227 336 215 353 l 227 334 l 218 334 q 209 346 217 334 q 201 334 204 335 l 193 334 q 203 354 203 351 l 194 370 m 195 321 l 225 321 l 225 316 l 207 294 l 225 294 l 225 286 l 194 286 l 194 292 l 212 315 l 195 315 l 195 321 z "},"S":{"ha":652,"x_min":-52,"x_max":642,"o":"m 328 969 q 545 865 490 969 q 583 711 583 787 l 581 711 q 430 702 471 702 q 397 792 430 755 q 339 810 366 810 l 312 810 q 228 756 243 810 q 224 732 224 741 l 224 718 q 304 608 224 642 q 416 557 311 602 q 519 493 471 531 l 519 492 l 349 492 l 349 473 l 573 473 l 573 446 l 602 446 l 602 151 l 546 151 l 546 0 l 115 0 l 115 151 l 13 151 l 13 253 l 71 253 l 71 288 l 13 288 l 13 312 l 210 312 l 210 151 l 412 151 l 412 393 l 261 393 l 261 473 l 73 473 l 73 492 l 164 492 l 164 493 q 45 718 45 572 l 45 730 q 119 915 45 852 q 328 969 187 969 m 573 492 l 642 492 l 642 473 l 573 473 l 573 492 m -52 288 l 13 288 l 13 253 l -52 253 l -52 288 m 382 288 l 403 288 q 406 285 406 288 l 406 280 l 389 280 l 389 274 l 404 274 l 404 269 q 401 266 404 266 l 389 266 l 389 259 l 406 259 l 406 254 q 403 252 406 252 l 382 252 q 379 254 379 252 l 379 285 q 382 288 380 288 m 374 240 l 380 240 q 392 228 382 240 q 399 240 397 240 l 404 240 q 408 237 408 240 q 393 203 393 221 l 389 203 q 384 222 385 203 q 374 240 374 235 m 370 193 l 376 193 q 384 172 380 193 l 387 172 q 395 193 391 193 l 401 193 q 404 189 404 192 l 404 159 q 401 156 404 156 l 397 156 l 397 176 l 395 176 l 389 156 l 384 156 q 376 176 380 156 l 374 176 l 374 156 l 370 156 q 366 159 366 156 l 366 189 q 370 193 367 193 m 555 143 l 572 143 q 585 130 585 143 q 581 127 581 130 q 586 116 586 121 q 568 106 582 106 l 559 106 q 555 110 555 106 l 555 143 m 565 135 l 565 129 l 572 129 q 574 132 574 129 l 574 135 l 565 135 m 565 123 l 565 115 l 573 115 q 576 118 576 115 l 576 119 q 573 123 576 123 l 565 123 m 555 96 l 562 96 q 576 73 566 96 l 578 73 l 578 96 l 586 96 l 586 62 q 583 59 586 59 l 579 59 q 564 79 578 59 l 564 62 q 560 59 564 59 l 559 59 q 555 62 555 59 l 555 96 z "},"T":{"ha":499,"x_min":-28,"x_max":541,"o":"m -28 972 l 541 972 l 541 810 l 353 810 l 353 138 l 438 138 l 438 118 l 353 118 l 353 44 l 302 44 l 302 18 l 338 18 l 338 0 l 165 0 q 161 3 161 0 l 161 810 l -28 810 l -28 972 m 286 138 l 286 118 l 351 118 l 351 138 l 286 138 z "},"U":{"ha":637,"x_min":15,"x_max":603,"o":"m 15 972 l 202 972 l 202 458 l 114 458 l 114 431 l 202 431 l 202 335 q 249 181 202 203 q 308 167 273 167 l 366 167 l 366 336 l 417 336 l 417 972 l 603 972 l 603 375 l 536 375 l 536 332 l 603 332 q 602 300 602 310 l 602 109 l 504 109 l 504 0 l 69 0 l 69 134 l 29 134 l 29 536 l 15 536 l 15 972 m 202 458 l 308 458 l 308 431 l 202 431 l 202 458 m 513 101 l 519 101 q 528 79 524 101 l 529 79 q 536 101 536 98 l 545 101 q 531 64 535 64 l 526 64 q 513 101 523 64 z "},"V":{"ha":710,"x_min":4,"x_max":674,"o":"m 4 972 l 210 972 q 288 593 212 956 l 331 593 l 331 556 l 279 556 l 279 593 l 207 593 l 207 556 l 279 556 l 279 382 l 302 382 l 302 292 l 359 292 l 359 425 l 380 425 l 380 556 l 422 556 l 422 593 l 389 593 q 468 972 466 956 l 674 972 q 562 476 562 486 l 562 307 l 505 307 l 505 273 l 548 273 l 548 174 l 471 174 l 471 0 l 230 0 q 210 75 226 0 l 273 75 l 273 115 l 203 115 q 184 194 199 115 q 4 972 176 218 m 482 167 l 503 167 q 515 157 512 167 l 511 146 q 515 128 514 146 l 509 128 q 503 142 505 128 l 491 142 l 491 128 l 482 128 l 482 167 m 491 160 l 491 151 l 502 151 q 505 155 505 151 l 505 157 q 502 160 505 160 l 491 160 m 482 114 l 511 114 l 511 109 q 507 105 511 105 l 491 105 l 491 100 l 507 100 l 507 91 l 491 91 l 491 75 l 482 75 l 482 114 m 482 60 l 491 60 l 491 21 l 482 21 l 482 60 z "},"W":{"ha":927,"x_min":-2,"x_max":928,"o":"m -2 972 l 182 972 l 236 484 l 287 484 q 332 972 288 490 l 564 972 q 611 465 609 474 l 688 465 q 745 972 739 901 l 928 972 l 852 456 l 838 456 l 838 361 l 699 361 l 699 336 l 808 336 l 808 191 l 703 191 l 703 64 l 675 64 l 675 8 l 557 8 l 557 322 l 480 322 l 480 435 q 450 710 480 450 l 446 710 l 446 709 l 421 484 l 433 484 l 433 136 l 320 136 l 320 0 l 175 0 l 175 136 l 119 136 l 119 456 l 75 456 l -2 972 m 81 442 l 90 442 l 97 421 l 98 421 q 106 442 103 442 l 113 442 l 113 440 q 100 407 103 407 l 92 407 q 81 442 92 412 m 79 394 l 89 394 l 89 370 q 96 366 89 369 q 102 370 102 368 l 102 394 l 111 394 l 111 376 q 102 359 111 363 l 92 359 q 79 376 79 359 l 79 394 m 79 347 l 103 347 q 110 340 106 347 l 110 334 l 106 329 q 111 311 109 323 l 102 311 q 100 324 102 315 l 89 324 l 89 311 l 83 311 q 79 315 79 311 l 79 347 m 89 340 l 89 332 l 98 332 q 102 335 102 332 q 100 340 100 338 l 89 340 m 85 298 l 111 298 l 111 290 l 96 290 l 96 286 l 106 286 q 110 282 110 285 l 110 277 l 96 277 l 96 263 l 89 263 q 85 267 85 263 l 85 298 m 96 252 q 110 239 110 249 l 106 238 l 103 238 l 97 244 l 92 244 q 85 233 85 241 q 96 222 85 222 q 102 227 102 224 l 102 228 q 94 231 94 228 l 94 233 q 97 236 94 236 l 110 236 l 110 216 l 108 216 q 103 217 106 216 l 94 216 l 92 216 q 78 230 78 218 l 78 236 q 96 252 78 250 m 79 203 l 89 203 l 89 190 l 102 190 l 102 203 l 111 203 l 111 171 q 108 168 111 168 l 102 168 l 102 182 l 89 182 l 89 168 l 83 168 q 79 171 79 168 l 79 203 m 708 184 l 718 184 q 721 164 721 170 l 722 164 q 727 184 727 180 l 734 184 q 740 163 738 184 l 742 163 q 748 184 745 184 l 754 184 q 743 149 747 149 l 736 149 l 732 168 l 730 168 q 727 149 727 150 l 718 149 q 708 184 715 162 m 709 136 l 718 136 q 724 126 721 136 q 730 136 727 126 l 740 136 l 740 134 l 730 119 q 742 102 730 119 l 742 100 l 734 100 q 726 112 730 100 q 716 100 718 100 l 708 100 q 720 118 708 102 l 720 119 l 709 134 l 709 136 z "},"X":{"ha":672,"x_min":0,"x_max":642,"o":"m 20 971 l 216 971 l 216 963 q 250 823 216 871 q 338 654 338 667 l 340 654 q 444 861 340 662 q 457 950 457 911 l 457 971 l 642 971 l 642 970 q 593 764 642 833 q 436 517 582 743 q 467 465 467 469 l 406 465 l 406 437 l 484 437 q 588 269 492 429 l 588 147 l 621 147 l 621 72 l 549 72 l 549 49 l 621 49 l 621 12 l 401 12 l 401 269 l 377 269 q 332 372 332 366 l 330 372 q 282 269 317 338 l 282 136 l 216 136 l 216 1 q 142 0 165 0 l 16 0 l 0 1 l 0 160 l 44 160 l 44 299 l 157 299 l 157 323 l 104 323 l 104 418 l 175 418 q 233 509 180 423 l 233 513 q 60 774 75 750 q 20 966 20 838 l 20 971 m 225 131 l 235 131 q 241 108 235 128 l 243 108 q 252 131 248 131 l 261 131 l 261 93 l 256 93 q 253 96 253 93 l 253 113 l 252 113 q 243 93 246 93 l 241 93 q 233 111 233 100 l 232 111 q 229 93 232 93 l 225 93 q 222 96 222 93 l 222 127 q 225 131 222 131 m 225 81 l 238 81 q 252 73 248 81 l 252 65 q 238 57 248 57 l 232 57 l 232 47 q 229 44 232 44 l 225 44 q 222 47 222 44 l 222 79 q 225 81 222 81 m 232 73 l 232 65 l 240 65 q 243 68 243 65 l 243 71 q 240 73 243 73 l 232 73 z "},"Y":{"ha":706,"x_min":-58,"x_max":672,"o":"m 58 972 l 249 972 q 298 734 249 832 q 370 531 351 606 l 370 530 l 372 530 q 473 807 396 619 q 492 972 492 897 l 672 972 q 631 757 656 826 l 524 511 l 458 511 l 458 343 l 358 343 l 358 311 l 458 311 l 458 0 l 272 0 q 269 3 269 0 l 269 155 l 239 155 l 239 425 l 294 425 l 294 450 l 234 450 q 121 703 227 458 q 77 821 77 800 l 157 821 l 157 854 l 71 854 q 58 972 58 962 m -58 854 l 71 854 l 76 821 l -58 821 l -58 854 m 466 505 l 496 505 l 496 498 l 477 475 l 496 475 l 496 471 q 492 467 496 467 l 468 467 q 465 471 465 467 l 465 474 l 483 496 l 466 496 l 466 505 m 458 343 l 538 343 l 538 311 l 458 311 l 458 343 z "},"Z":{"ha":595,"x_min":8,"x_max":616,"o":"m 8 973 l 521 973 l 521 850 q 442 680 521 846 l 616 680 l 616 637 l 424 637 q 372 532 422 637 q 321 422 370 525 l 349 422 q 290 300 296 308 l 206 300 l 206 262 l 273 262 l 228 164 l 406 164 l 406 113 l 567 113 l 567 3 q 564 0 567 0 l 293 0 l 293 16 l 8 16 l 8 110 l 49 110 l 49 214 q 147 422 60 244 l 119 422 l 119 425 l 304 810 l 8 810 l 8 973 m 351 680 l 351 637 l 419 637 q 441 680 422 637 l 351 680 z "},"[":{"ha":514,"x_min":0,"x_max":0,"o":""},"\\":{"ha":386,"x_min":0,"x_max":0,"o":""},"]":{"ha":514,"x_min":0,"x_max":0,"o":""},"^":{"ha":688,"x_min":0,"x_max":0,"o":""},"_":{"ha":503,"x_min":-244,"x_max":521,"o":"m -244 -66 l 521 -66 l 521 -115 l 350 -115 l 350 -157 l -244 -157 l -244 -66 z "},"`":{"ha":694,"x_min":144,"x_max":456,"o":"m 456 732 l 410 732 l 186 869 q 154 896 165 882 q 144 924 144 909 q 158 959 144 945 q 194 972 172 972 q 221 964 208 972 q 259 932 235 956 l 456 732 z "},"a":{"ha":667,"x_min":-44,"x_max":695,"o":"m 306 970 l 469 970 q 628 440 473 956 l 658 440 l 658 121 l 591 121 l 591 96 l 658 96 l 658 28 l 477 28 l 477 224 l 257 224 l 257 140 l 167 140 l 167 0 l 3 0 l 3 9 l 16 9 l 16 140 l 83 140 l 83 412 l 139 412 l 306 970 m 382 696 l 382 695 q 301 330 361 579 l 453 330 l 453 440 l 440 440 q 386 696 386 675 l 382 696 m -44 441 l 83 441 l 83 412 l -44 412 l -44 441 m 477 16 l 695 16 l 695 0 l 477 0 l 477 16 z "},"b":{"ha":675,"x_min":0,"x_max":662,"o":"m 36 963 l 309 963 q 542 871 492 963 q 570 739 570 823 l 570 672 q 488 519 570 577 q 558 476 515 514 l 580 476 q 632 395 620 434 q 635 380 635 382 l 662 380 l 662 364 l 574 364 l 574 380 l 395 380 l 395 431 l 219 431 l 219 151 l 330 151 l 330 171 l 395 171 l 395 364 l 574 364 l 574 194 l 594 194 l 594 87 l 535 87 l 535 62 l 594 62 l 594 18 l 367 18 l 367 0 l 119 0 l 119 18 l 64 18 l 64 166 l 138 166 l 138 205 l 64 205 q 62 374 62 319 l 62 445 l 0 445 l 0 463 l 62 463 l 62 500 l 33 500 l 33 960 q 36 963 33 963 m 222 800 l 222 562 l 263 562 q 359 586 336 562 q 382 692 382 606 l 382 695 q 359 784 382 768 q 254 800 344 800 l 222 800 m 64 463 l 64 445 l 153 445 l 153 463 l 64 463 m 304 380 l 395 380 l 395 364 l 304 364 l 304 380 z "},"c":{"ha":710,"x_min":24,"x_max":806,"o":"m 378 972 q 634 844 582 972 q 650 804 650 814 l 564 804 l 564 778 l 656 778 l 656 779 q 650 804 656 786 l 806 804 l 806 778 l 658 778 l 658 776 q 674 659 669 721 q 496 646 674 655 l 496 647 q 385 808 496 808 l 365 808 q 264 738 282 808 q 250 581 250 679 l 250 449 l 248 429 l 185 429 l 185 399 l 248 399 l 248 163 l 509 163 l 509 408 l 659 408 l 659 163 l 576 163 l 576 13 l 401 13 l 401 0 l 266 0 l 266 13 l 128 13 l 128 88 l 220 88 l 220 121 l 82 121 l 82 232 l 24 232 l 24 370 l 55 370 q 53 503 53 454 q 74 783 53 725 q 140 897 95 849 q 378 972 220 972 z "},"d":{"ha":705,"x_min":-39,"x_max":876,"o":"m 47 970 l 343 970 q 597 844 528 970 q 656 520 656 747 l 686 520 l 686 288 l 398 288 l 398 315 l 488 315 l 488 520 l 462 520 l 462 605 q 398 787 462 748 q 278 808 361 808 l 238 808 l 238 525 l 265 525 l 265 288 l 71 288 l 71 507 l 47 507 l 47 970 m -39 288 l 49 288 l 49 258 l 265 258 l 265 194 l 398 194 l 398 258 l 686 258 l 686 194 l 488 194 l 488 21 l 265 21 l 265 0 l 51 0 q 47 3 47 0 l 47 258 l -39 258 l -39 288 m 265 288 l 398 288 l 398 258 l 265 258 l 265 288 m 686 288 l 876 288 l 876 258 l 686 258 l 686 288 z "},"e":{"ha":616,"x_min":-90,"x_max":543,"o":"m 64 965 l 540 965 l 540 807 q 536 804 540 804 l 254 804 l 254 595 l 507 595 l 507 593 q 505 490 507 584 q 503 489 503 490 l 514 489 l 514 440 l 295 440 l 295 242 l 236 242 l 236 222 l 295 222 l 295 162 l 543 162 l 543 140 l 524 140 l 524 21 l 227 21 l 227 0 l 85 0 l 85 346 l 64 346 l 64 468 l -90 468 l -90 489 l 64 489 l 64 965 m 66 489 l 66 468 l 145 468 l 145 489 l 66 489 z "},"f":{"ha":487,"x_min":0,"x_max":486,"o":"m 0 968 l 486 968 l 486 806 l 193 806 l 193 577 l 445 577 l 448 575 l 446 572 q 445 515 445 523 l 417 515 l 417 513 q 414 438 417 496 l 440 438 q 435 411 440 411 l 258 411 l 258 378 l 165 378 l 165 360 l 193 360 l 193 275 l 285 275 l 285 260 l 193 260 l 193 26 l 191 15 l 92 15 l 92 0 l 3 0 q 0 3 0 0 l 0 28 l 1 44 l 49 44 l 49 68 l 0 68 l 0 161 l 23 161 l 23 503 l 62 503 l 62 528 l 0 528 l 0 968 m 102 275 l 102 260 l 191 260 l 191 275 l 102 275 z "},"g":{"ha":720,"x_min":0,"x_max":714,"o":"m 360 970 l 362 970 q 627 828 579 970 q 650 680 650 776 l 492 659 l 490 663 l 490 666 q 413 802 490 781 q 355 810 390 809 q 248 720 272 810 q 233 579 233 661 l 233 503 q 237 304 233 371 l 277 304 l 277 169 l 469 169 l 469 400 l 347 400 l 347 524 l 714 524 l 714 497 l 666 497 l 666 354 l 568 354 l 568 309 l 616 309 l 616 34 l 92 34 l 92 180 l 32 180 l 32 193 l 58 193 l 58 208 l 92 208 l 92 262 l 0 262 l 0 380 l 43 380 q 42 439 42 431 q 75 810 42 747 q 132 899 85 851 q 360 970 200 970 m 227 19 l 426 19 l 426 0 l 227 0 l 227 19 z "},"h":{"ha":649,"x_min":16,"x_max":651,"o":"m 16 970 l 208 970 l 208 583 l 402 583 l 402 970 l 565 970 l 565 419 l 498 419 l 498 395 l 565 395 l 565 0 l 405 0 q 402 3 402 0 l 402 422 l 208 422 l 208 3 q 205 0 208 0 l 43 0 l 43 505 l 16 505 l 16 970 m 565 419 l 651 419 l 651 395 l 565 395 l 565 419 z "},"i":{"ha":271,"x_min":0,"x_max":241,"o":"m 56 972 l 239 972 q 241 968 241 971 l 241 496 q 239 493 241 493 l 217 493 l 217 3 q 214 0 217 0 l 56 0 q 52 3 52 0 l 52 505 l 3 505 q 0 508 0 505 l 0 529 q 3 532 1 532 l 52 532 l 52 968 q 56 972 53 972 m 54 532 l 54 505 l 147 505 l 147 532 l 54 532 z "},"j":{"ha":571,"x_min":0,"x_max":533,"o":"m 347 971 l 533 971 l 533 652 l 514 652 l 514 306 l 533 306 l 533 27 l 85 27 l 85 87 l 0 87 l 0 197 l 52 197 l 52 216 l 0 216 l 0 240 l 184 240 l 184 172 l 348 172 l 348 266 q 347 398 348 314 l 203 398 l 203 412 l 347 412 l 347 971 m 348 412 l 348 398 l 403 398 l 403 412 l 348 412 m 189 13 l 427 13 l 427 0 l 189 0 l 189 13 z "},"k":{"ha":618,"x_min":0,"x_max":589,"o":"m 0 966 l 190 966 l 190 784 q 186 588 190 693 l 186 586 l 189 586 q 317 815 212 631 q 370 956 370 909 l 370 966 l 565 966 l 565 961 q 489 758 565 868 l 374 591 l 487 349 l 589 349 l 589 320 l 474 320 l 474 318 q 510 247 502 258 l 531 247 l 531 159 l 560 159 l 560 1 q 487 0 511 0 l 440 0 q 372 1 415 0 l 372 107 l 330 107 l 330 247 l 305 247 l 279 320 l 473 320 l 473 349 l 296 349 q 264 446 296 353 l 263 446 q 198 349 247 416 l 279 349 l 279 320 l 190 320 l 190 273 l 178 273 l 178 52 l 190 52 l 190 3 q 186 0 190 0 l 3 0 q 0 3 0 0 l 0 79 l 86 79 l 86 112 l 0 112 l 0 966 m 78 349 l 78 320 l 189 320 q 197 349 189 326 l 78 349 z "},"l":{"ha":517,"x_min":0,"x_max":514,"o":"m 0 974 l 193 974 l 193 574 l 155 574 l 155 162 l 444 162 l 444 75 l 387 75 l 387 56 l 444 56 l 444 0 l 257 0 l 257 15 l 1 15 q 0 39 0 31 l 0 257 l 49 257 l 49 286 l 0 286 l 0 974 m 444 75 l 514 75 l 514 56 l 444 56 l 444 75 z "},"m":{"ha":899,"x_min":0,"x_max":920,"o":"m 15 967 l 231 967 q 377 446 267 837 l 463 446 q 490 539 466 446 q 611 967 544 724 l 810 967 l 810 340 l 821 340 l 821 225 l 761 225 l 761 204 l 821 204 l 821 0 l 652 0 l 652 75 l 673 75 l 673 307 l 637 307 l 637 423 l 616 423 l 614 416 l 596 416 l 596 252 l 537 252 l 537 175 l 487 175 l 487 44 l 368 44 l 368 127 l 294 127 l 294 241 l 250 241 l 250 361 l 225 361 q 209 423 224 370 l 380 423 l 376 446 l 204 446 l 209 423 l 186 423 l 186 273 l 197 273 l 197 108 l 155 108 l 155 79 l 197 79 l 197 35 l 44 35 l 44 233 l 15 233 l 15 967 m 184 515 l 184 503 q 186 446 184 488 l 203 446 q 186 515 186 511 l 184 515 m 637 513 l 623 446 l 637 446 q 639 507 639 488 l 639 513 l 637 513 m 131 446 l 131 423 l 184 423 l 184 446 l 131 446 m 465 446 l 460 423 l 614 423 q 621 446 621 441 l 465 446 m 639 446 l 639 423 l 756 423 l 756 446 l 639 446 m 384 423 q 399 371 395 371 l 418 371 l 418 284 l 449 284 l 449 418 l 457 418 l 457 423 l 384 423 m 821 225 l 920 225 l 920 204 l 821 204 l 821 225 m 0 26 l 173 26 l 173 12 l 0 12 l 0 26 z "},"n":{"ha":726,"x_min":0,"x_max":712,"o":"m 28 969 l 226 969 q 290 814 230 969 q 414 507 294 808 l 465 507 l 465 969 l 638 969 l 638 419 l 658 419 l 658 205 l 588 205 l 588 163 l 658 163 l 658 36 l 398 36 l 398 198 l 352 198 q 226 513 258 426 l 226 676 l 201 676 l 201 178 l 162 178 l 162 7 l 0 7 l 0 376 l 29 376 l 29 378 q 28 969 28 857 m 319 507 l 319 471 l 427 471 q 411 507 414 507 l 319 507 m 467 507 l 467 471 l 429 471 q 470 359 463 385 l 471 359 l 471 363 q 467 471 467 452 l 545 471 l 545 507 l 467 507 m 398 18 l 712 18 l 712 0 l 398 0 l 398 18 z "},"o":{"ha":758,"x_min":-31,"x_max":802,"o":"m 373 970 q 648 825 582 970 q 685 550 685 753 l 685 545 l 613 545 l 613 513 l 685 513 l 685 162 l 637 162 l 637 36 l 543 36 l 543 0 l 214 0 l 214 36 l 174 36 l 174 162 l 89 162 l 89 261 l 139 261 l 139 313 l 89 313 l 89 261 l -31 261 l -31 313 l 60 313 q 58 495 58 432 l 58 578 q 136 886 58 808 q 373 970 208 970 m 254 636 l 256 636 l 254 633 l 254 545 l 182 545 l 182 513 l 254 513 q 253 197 253 303 l 253 162 l 415 162 l 415 216 l 490 216 l 490 218 q 488 494 490 317 q 490 531 488 501 q 467 766 490 722 q 382 808 444 808 l 359 808 q 267 743 285 808 q 254 636 259 711 m 685 545 l 802 545 l 802 513 l 685 513 l 685 545 z "},"p":{"ha":685,"x_min":0,"x_max":707,"o":"m 0 975 l 252 975 q 534 861 472 975 q 570 678 570 789 q 568 637 568 658 l 707 637 l 707 591 l 563 591 l 563 592 q 566 637 566 635 l 485 637 l 485 591 l 563 591 l 563 425 l 402 425 l 402 368 l 401 368 q 190 367 215 367 l 190 281 l 156 281 l 156 128 l 175 128 l 175 0 l 22 0 l 22 60 l 1 60 l 1 111 q 0 394 1 197 l 92 394 l 92 444 l 0 444 l 0 975 m 190 810 l 190 532 l 248 532 l 248 572 l 363 572 q 386 691 386 593 q 344 798 386 784 q 273 810 328 810 l 190 810 z "},"q":{"ha":694,"x_min":0,"x_max":718,"o":"m 349 969 q 585 843 529 969 q 617 606 617 781 l 617 602 l 556 602 l 556 574 l 617 574 l 617 271 l 577 271 l 577 162 l 496 162 l 496 56 l 530 56 l 530 0 l 375 0 l 375 62 l 273 62 l 273 162 l 159 162 l 159 271 l 104 271 l 104 357 l 147 357 l 147 401 l 104 401 l 104 357 l 0 357 l 0 401 l 79 401 q 77 559 77 504 l 77 630 q 144 896 77 829 q 349 969 206 969 m 246 680 l 248 680 l 246 677 l 246 602 l 183 602 l 183 574 l 246 574 q 245 301 245 393 l 245 271 l 308 271 l 308 318 l 450 318 l 450 319 q 448 557 450 405 q 450 589 448 564 q 430 792 450 755 q 357 829 410 829 l 336 829 q 258 773 273 829 q 246 680 251 745 m 617 602 l 718 602 l 718 574 l 617 574 l 617 602 z "},"r":{"ha":602,"x_min":0,"x_max":577,"o":"m 0 970 l 332 970 q 548 852 499 970 q 569 714 569 792 l 569 673 q 507 458 569 532 l 437 458 l 437 422 l 545 422 l 545 191 l 481 191 l 481 155 l 577 155 l 577 18 l 375 18 l 375 237 l 297 237 l 297 378 l 161 378 l 161 138 l 191 138 l 191 0 l 3 0 q 0 3 0 0 l 0 393 l 83 393 l 83 420 l 0 420 l 0 970 m 191 812 l 191 538 l 237 538 q 357 557 340 538 q 383 602 374 568 l 455 602 l 455 636 l 390 636 l 390 633 q 382 602 385 602 l 289 602 l 289 636 l 387 636 q 390 639 390 636 q 391 686 391 681 q 360 798 391 777 q 271 812 336 812 l 191 812 z "},"s":{"ha":654,"x_min":-50,"x_max":644,"o":"m 330 969 q 547 865 492 969 q 585 711 585 787 l 583 711 q 432 702 473 702 q 399 792 432 755 q 341 810 368 810 l 314 810 q 230 756 245 810 q 227 732 227 741 l 227 718 q 307 608 227 642 q 418 557 313 602 q 521 493 473 531 l 521 492 l 351 492 l 351 473 l 575 473 l 575 446 l 604 446 l 604 151 l 548 151 l 548 0 l 117 0 l 117 151 l 15 151 l 15 253 l 73 253 l 73 288 l 15 288 l 15 312 l 212 312 l 212 151 l 414 151 l 414 393 l 263 393 l 263 473 l 75 473 l 75 492 l 166 492 l 166 493 q 47 718 47 572 l 47 730 q 121 915 47 852 q 330 969 189 969 m 575 492 l 644 492 l 644 473 l 575 473 l 575 492 m -50 288 l 15 288 l 15 253 l -50 253 l -50 288 z "},"t":{"ha":499,"x_min":-28,"x_max":541,"o":"m -28 972 l 541 972 l 541 810 l 353 810 l 353 138 l 438 138 l 438 118 l 353 118 l 353 44 l 302 44 l 302 18 l 338 18 l 338 0 l 165 0 q 161 3 161 0 l 161 810 l -28 810 l -28 972 m 286 138 l 286 118 l 351 118 l 351 138 l 286 138 z "},"u":{"ha":625,"x_min":0,"x_max":587,"o":"m 0 971 l 187 971 l 187 458 l 99 458 l 99 431 l 187 431 l 187 334 q 234 181 187 203 q 293 166 258 166 l 351 166 l 351 336 l 401 336 l 401 971 l 587 971 l 587 374 l 520 374 l 520 331 l 587 331 q 586 299 586 310 l 586 109 l 488 109 l 488 0 l 54 0 l 54 134 l 14 134 l 14 536 l 0 536 l 0 971 m 187 458 l 293 458 l 293 431 l 187 431 l 187 458 z "},"v":{"ha":686,"x_min":0,"x_max":670,"o":"m 0 972 l 206 972 q 284 593 208 956 l 327 593 l 327 556 l 275 556 l 275 593 l 203 593 l 203 556 l 275 556 l 275 382 l 298 382 l 298 292 l 355 292 l 355 425 l 377 425 l 377 556 l 418 556 l 418 593 l 386 593 q 464 972 462 956 l 670 972 q 558 476 558 486 l 558 307 l 501 307 l 501 274 l 544 274 l 544 174 l 467 174 l 467 0 l 226 0 q 206 75 222 0 l 269 75 l 269 115 l 199 115 q 180 194 195 115 q 0 972 172 218 z "},"w":{"ha":927,"x_min":0,"x_max":929,"o":"m 0 970 l 183 970 l 237 483 l 288 483 q 333 970 290 489 l 566 970 q 612 464 610 473 l 688 464 q 746 970 739 901 l 929 970 l 852 456 l 838 456 l 838 360 l 700 360 l 700 336 l 810 336 l 810 191 l 705 191 l 705 64 l 675 64 l 675 8 l 557 8 l 557 322 l 481 322 l 481 435 q 451 709 481 450 l 448 709 l 448 707 l 422 483 l 435 483 l 435 136 l 322 136 l 322 0 l 177 0 l 177 136 l 121 136 l 121 456 l 77 456 l 0 970 z "},"x":{"ha":685,"x_min":0,"x_max":642,"o":"m 20 971 l 216 971 l 216 963 q 250 823 216 871 q 338 654 338 667 l 340 654 q 444 861 340 662 q 457 950 457 911 l 457 971 l 642 971 l 642 970 q 593 764 642 833 q 436 517 582 743 q 467 465 467 469 l 406 465 l 406 437 l 484 437 q 588 269 492 429 l 588 147 l 621 147 l 621 72 l 549 72 l 549 49 l 621 49 l 621 12 l 401 12 l 401 269 l 377 269 q 332 372 332 366 l 330 372 q 282 269 317 338 l 282 136 l 216 136 l 216 1 q 142 0 165 0 l 16 0 l 0 1 l 0 160 l 44 160 l 44 299 l 157 299 l 157 323 l 104 323 l 104 418 l 175 418 q 233 509 180 423 l 233 513 q 60 774 75 750 q 20 966 20 838 l 20 971 z "},"y":{"ha":694,"x_min":-68,"x_max":660,"o":"m 47 970 l 238 970 q 287 732 238 829 q 359 530 339 604 l 359 528 l 360 528 q 461 805 385 618 q 481 970 481 894 l 660 970 q 619 754 644 823 l 511 510 l 446 510 l 446 342 l 347 342 l 347 310 l 446 310 l 446 0 l 260 0 q 258 3 258 0 l 258 155 l 228 155 l 228 424 l 283 424 l 283 448 l 223 448 q 111 701 216 457 q 66 818 66 798 l 146 818 l 146 852 l 60 852 q 47 970 47 960 m -68 852 l 60 852 l 65 818 l -68 818 l -68 852 m 446 342 l 526 342 l 526 310 l 446 310 l 446 342 z "},"z":{"ha":585,"x_min":0,"x_max":606,"o":"m 0 970 l 511 970 l 511 847 q 433 677 511 843 l 606 677 l 606 635 l 414 635 q 362 530 412 635 q 312 421 361 523 l 340 421 q 281 298 287 307 l 197 298 l 197 261 l 264 261 l 219 163 l 397 163 l 397 113 l 557 113 l 557 3 q 553 0 557 0 l 284 0 l 284 16 l 0 16 l 0 109 l 41 109 l 41 214 q 139 421 52 243 l 111 421 l 111 422 l 296 808 l 0 808 l 0 970 m 341 677 l 341 635 l 410 635 q 431 677 413 635 l 341 677 z "},"{":{"ha":688,"x_min":163,"x_max":600,"o":"m 163 473 q 314 522 279 477 q 349 612 349 566 l 349 929 q 401 1025 349 979 q 526 1071 453 1071 l 600 1071 l 600 1037 l 538 1037 q 466 1014 497 1037 q 434 952 435 991 l 434 613 q 393 506 434 557 q 296 454 352 454 l 296 452 q 393 401 352 452 q 435 294 435 350 l 434 -45 q 466 -107 435 -85 q 538 -130 497 -130 l 600 -130 l 600 -164 l 526 -164 q 401 -118 453 -164 q 349 -22 349 -73 l 349 295 q 314 385 349 340 q 163 433 279 429 l 163 473 z "},"|":{"ha":688,"x_min":290,"x_max":398,"o":"m 290 1069 l 398 1069 l 398 -283 l 290 -283 l 290 1069 z "},"}":{"ha":688,"x_min":88,"x_max":525,"o":"m 525 433 q 374 385 408 429 q 339 295 339 340 l 339 -22 q 287 -118 338 -73 q 161 -164 235 -164 l 88 -164 l 88 -130 l 149 -130 q 222 -107 191 -130 q 254 -45 253 -85 l 253 294 q 294 401 253 350 q 392 452 336 452 l 392 454 q 295 506 336 454 q 254 613 254 557 l 254 952 q 222 1014 253 991 q 149 1037 191 1037 l 88 1037 l 88 1071 l 161 1071 q 287 1025 235 1071 q 339 929 339 979 l 339 612 q 374 522 339 566 q 525 473 408 477 l 525 433 z "},"~":{"ha":688,"x_min":64,"x_max":626,"o":"m 626 595 l 626 490 q 543 424 583 441 q 465 406 503 406 q 344 439 424 406 q 224 472 264 472 q 152 453 190 472 q 64 377 113 434 l 64 483 q 147 550 107 532 q 224 568 187 568 q 348 534 268 568 q 465 500 427 500 q 538 519 500 500 q 626 595 576 538 z "},"":{"ha":456,"x_min":0,"x_max":0,"o":""},"":{"ha":772,"x_min":0,"x_max":0,"o":""},"":{"ha":688,"x_min":52,"x_max":635,"o":"m 507 913 q 399 935 458 935 l 397 935 q 269 866 330 935 q 212 703 212 803 q 212 682 212 692 q 248 497 212 591 l 492 497 l 492 456 l 266 456 q 287 416 275 436 q 311 322 311 373 q 201 68 311 213 l 473 68 q 602 157 562 68 l 635 157 l 565 0 l 77 0 l 78 34 q 205 317 205 195 q 182 414 205 370 q 161 456 170 436 l 52 456 l 52 497 l 143 497 q 104 669 104 594 q 188 904 104 822 q 395 986 271 986 l 398 986 q 524 977 449 986 q 599 954 599 967 l 599 844 l 559 844 q 507 913 556 886 z "},"":{"ha":688,"x_min":83,"x_max":604,"o":"m 237 380 q 304 341 265 353 q 344 336 324 336 q 383 341 363 336 q 450 380 422 353 q 489 447 477 408 q 495 486 495 467 q 489 526 495 506 q 450 593 477 565 q 382 631 422 620 q 343 637 363 637 q 304 631 323 637 q 237 593 264 619 q 199 526 211 566 q 193 486 193 506 q 199 448 193 467 q 237 380 210 408 m 163 612 l 83 692 l 137 747 l 217 667 q 284 699 247 688 q 345 708 314 708 q 401 700 372 708 q 470 667 439 688 l 550 747 l 604 692 l 525 613 q 557 544 546 582 q 566 486 566 515 q 557 429 566 458 q 525 359 546 391 l 604 280 l 550 225 l 470 305 q 401 273 439 283 q 344 264 373 264 q 286 273 315 264 q 217 305 248 283 l 137 225 l 83 280 l 163 359 q 130 429 141 391 q 122 486 122 458 q 131 545 122 516 q 163 612 142 583 z "},"":{"ha":856,"x_min":5,"x_max":864,"o":"m 371 153 l 370 317 q 369 340 370 330 q 366 362 368 351 l 37 363 q 23 367 28 363 q 18 380 18 372 q 23 393 18 389 q 37 397 27 397 l 354 397 l 272 514 l 39 514 q 23 518 27 514 q 18 530 18 522 q 22 544 18 540 q 37 547 26 547 l 245 547 q 172 652 216 586 q 18 786 83 786 q 9 790 14 786 q 5 798 5 793 q 13 816 5 810 q 35 822 20 822 q 118 817 53 822 q 229 811 183 811 l 289 811 q 317 807 311 811 q 322 789 322 802 q 312 779 322 783 q 286 775 302 775 q 274 777 282 775 q 261 778 265 778 q 236 771 245 778 q 227 754 227 765 q 238 719 227 742 q 269 667 249 696 l 376 517 q 399 481 385 504 q 447 433 427 433 q 458 437 453 433 q 468 447 463 440 l 656 715 q 665 733 661 724 q 668 750 668 743 q 661 768 668 762 q 636 778 654 774 q 608 781 626 779 q 576 798 576 783 q 582 813 576 808 q 599 818 587 818 q 609 817 601 818 q 682 812 647 812 l 777 812 q 821 813 797 812 q 846 814 844 814 q 858 811 853 814 q 864 803 863 808 q 838 780 864 784 q 820 777 826 778 q 720 697 777 766 q 712 687 715 691 l 597 547 l 817 547 q 833 543 827 547 q 839 532 839 539 q 835 518 839 522 q 819 514 831 514 l 571 514 q 506 438 540 475 q 470 397 471 400 l 817 397 q 834 394 829 397 q 839 382 839 390 q 834 368 839 372 q 819 363 829 363 l 460 363 q 459 342 460 355 q 458 322 458 329 l 460 176 q 464 75 460 99 q 477 45 467 50 q 550 32 498 33 q 603 11 603 31 q 596 -3 603 3 q 579 -8 589 -8 q 555 -5 578 -8 q 511 -3 532 -3 q 370 -5 450 -3 q 273 -8 290 -8 q 246 -5 252 -8 q 240 5 240 -3 q 245 18 240 14 q 271 26 251 22 q 288 30 277 28 q 350 52 338 41 q 366 83 361 60 q 371 153 371 106 z "},"":{"ha":688,"x_min":290,"x_max":398,"o":"m 290 252 l 398 252 l 398 -283 l 290 -283 l 290 252 m 290 1070 l 398 1070 l 398 535 l 290 535 l 290 1070 z "},"":{"ha":688,"x_min":115,"x_max":572,"o":"m 370 218 q 435 254 408 229 q 485 366 485 298 q 484 373 485 370 l 483 373 q 480 391 482 382 q 404 477 465 433 q 318 497 363 497 q 233 467 265 497 q 201 387 201 437 q 370 218 201 304 m 316 -235 q 441 -188 393 -231 q 490 -76 490 -144 q 276 111 490 9 q 157 204 193 155 q 121 324 121 254 q 182 485 121 425 q 297 541 227 529 l 270 553 q 151 646 186 597 q 115 766 115 696 q 176 927 115 867 q 322 985 231 981 q 334 986 328 986 l 336 986 q 446 975 380 986 q 512 947 512 964 l 512 815 l 477 815 q 423 905 474 870 q 322 939 376 937 l 312 939 q 227 909 259 939 q 195 829 195 879 q 390 647 195 740 q 529 550 491 602 q 566 422 566 498 q 498 231 566 307 q 431 188 466 205 q 535 108 504 150 q 572 -19 572 56 q 504 -211 572 -135 q 316 -282 420 -280 l 316 -281 q 307 -282 312 -282 l 305 -282 q 195 -271 260 -282 q 129 -243 129 -260 l 129 -111 l 163 -111 q 218 -201 167 -166 q 316 -235 264 -231 z "},"":{"ha":694,"x_min":142,"x_max":536,"o":"m 151 874 l 199 923 q 216 931 208 931 q 235 922 224 931 l 281 872 q 288 855 288 863 q 280 837 288 846 l 233 786 q 216 774 222 774 q 199 783 207 774 l 148 841 q 142 857 142 849 q 151 874 142 865 m 399 874 l 447 923 q 464 931 456 931 q 482 922 471 931 l 529 872 q 536 855 536 863 q 528 838 536 846 l 481 786 q 464 774 469 774 q 447 783 454 774 l 395 842 q 389 857 389 849 q 399 874 389 865 z "},"":{"ha":1135,"x_min":68,"x_max":1067,"o":"m 570 987 q 760 949 668 987 q 922 840 851 911 q 1029 679 991 772 q 1067 487 1067 586 q 1029 296 1067 387 q 919 133 991 204 q 757 25 848 62 q 565 -12 666 -12 q 376 25 466 -12 q 215 134 287 63 q 105 295 143 205 q 68 487 68 386 q 105 679 68 587 q 214 840 143 770 q 375 949 283 911 q 570 987 468 987 m 242 812 q 143 663 178 747 q 109 487 109 579 q 143 311 109 394 q 243 163 178 229 q 392 63 310 98 q 566 28 474 28 q 742 63 659 28 q 890 161 825 97 q 991 312 956 228 q 1027 487 1027 395 q 991 663 1027 578 q 893 812 956 748 q 744 912 828 877 q 569 947 660 947 q 391 912 476 947 q 242 812 307 877 m 587 151 q 408 197 490 151 q 281 323 325 243 q 238 488 238 402 q 282 653 238 573 q 410 778 327 733 q 582 823 492 823 q 633 819 608 823 q 684 805 658 814 q 690 804 688 804 q 708 825 703 804 l 736 825 l 785 690 l 755 690 q 667 774 720 754 q 567 792 618 792 l 557 792 q 444 744 498 787 q 361 624 389 701 q 339 499 339 563 q 340 465 339 482 q 388 313 348 383 q 489 210 427 243 q 602 182 538 183 q 733 220 686 182 q 781 305 781 258 l 817 305 l 817 237 q 751 179 817 206 q 587 151 686 151 z "},"":{"ha":439,"x_min":0,"x_max":0,"o":""},"":{"ha":640,"x_min":118,"x_max":572,"o":"m 118 325 l 350 530 l 359 530 l 359 505 l 220 325 l 359 144 l 359 119 l 350 119 l 118 325 m 330 325 l 562 530 l 572 530 l 572 505 l 433 325 l 572 144 l 572 119 l 562 119 l 330 325 z "},"":{"ha":688,"x_min":59,"x_max":629,"o":"m 59 520 l 629 520 l 629 187 l 628 186 l 562 186 l 562 452 l 59 452 l 59 520 z "},"":{"ha":1135,"x_min":68,"x_max":1067,"o":"m 509 745 l 509 492 l 511 486 q 549 431 527 448 q 587 416 569 416 l 591 416 q 633 443 612 419 q 665 509 654 466 q 673 578 673 543 q 673 597 673 587 q 654 681 670 642 q 615 733 637 720 q 572 745 593 745 l 509 745 m 667 391 l 723 312 q 825 216 791 216 l 848 216 l 848 182 l 613 182 l 613 216 l 644 216 q 664 231 664 216 q 617 309 664 251 l 566 378 q 509 406 538 378 l 509 298 q 534 216 509 216 l 570 216 l 570 182 l 355 182 l 355 216 l 385 216 q 410 298 410 216 l 410 663 q 385 745 410 745 l 355 745 l 355 793 l 597 793 q 682 764 640 792 q 744 687 722 736 q 766 584 766 637 q 745 482 766 531 q 667 391 723 433 m 570 987 q 760 949 668 987 q 922 840 851 911 q 1029 679 991 772 q 1067 487 1067 586 q 1029 296 1067 387 q 919 133 991 204 q 757 25 848 62 q 565 -12 666 -12 q 376 25 466 -12 q 215 134 287 63 q 105 295 143 205 q 68 487 68 386 q 105 679 68 587 q 214 840 143 770 q 375 949 283 911 q 570 987 468 987 m 242 812 q 143 663 178 747 q 109 487 109 579 q 143 311 109 394 q 243 163 178 229 q 392 63 310 98 q 566 28 474 28 q 742 63 659 28 q 890 161 825 97 q 991 312 956 228 q 1027 487 1027 395 q 991 663 1027 578 q 893 812 956 748 q 744 912 828 877 q 569 947 660 947 q 391 912 476 947 q 242 812 307 877 z "},"":{"ha":454,"x_min":0,"x_max":0,"o":""},"":{"ha":457,"x_min":41,"x_max":418,"o":"m 230 930 q 130 889 172 930 q 88 789 88 848 q 130 689 88 730 q 230 648 171 648 q 330 689 289 648 q 370 789 370 730 q 329 889 370 848 q 230 930 288 930 m 230 978 q 363 923 308 978 q 418 789 418 867 q 362 656 418 712 q 229 601 307 601 q 95 656 149 601 q 41 789 41 711 q 96 923 41 868 q 230 978 151 978 z "},"":{"ha":688,"x_min":0,"x_max":0,"o":""},"":{"ha":688,"x_min":0,"x_max":0,"o":""},"":{"ha":688,"x_min":0,"x_max":0,"o":""},"":{"ha":694,"x_min":214,"x_max":527,"o":"m 412 932 q 449 964 435 956 q 477 972 463 972 q 513 959 499 972 q 527 924 527 945 q 516 896 527 909 q 485 869 506 882 l 261 731 l 214 731 l 412 932 z "},"":{"ha":800,"x_min":0,"x_max":0,"o":""},"":{"ha":694,"x_min":63,"x_max":630,"o":"m 630 973 l 630 926 l 544 926 l 544 0 l 488 0 l 488 926 l 376 926 l 376 0 l 319 0 l 319 500 q 132 570 201 506 q 63 736 63 634 q 136 908 63 843 q 330 973 209 973 l 630 973 z "},"":{"ha":345,"x_min":87,"x_max":257,"o":"m 98 502 l 154 559 q 174 568 164 568 q 195 557 182 568 l 249 499 q 257 479 257 488 q 248 458 257 469 l 193 399 q 174 385 180 385 q 154 395 163 385 l 94 463 q 87 481 87 472 q 98 502 87 491 z "},"":{"ha":694,"x_min":244,"x_max":521,"o":"m 244 -197 q 347 -232 302 -232 q 411 -217 392 -232 q 431 -172 431 -203 q 397 -129 431 -142 q 328 -118 370 -118 q 305 -119 317 -118 l 338 0 l 380 0 l 355 -71 q 397 -67 377 -68 q 488 -95 456 -67 q 521 -172 521 -122 q 481 -253 521 -223 q 372 -283 441 -283 q 244 -262 298 -283 l 244 -197 z "},"":{"ha":688,"x_min":0,"x_max":0,"o":""},"":{"ha":487,"x_min":0,"x_max":0,"o":""},"":{"ha":640,"x_min":68,"x_max":522,"o":"m 78 119 l 68 119 l 68 144 l 208 325 l 68 505 l 68 530 l 78 530 l 310 325 l 78 119 m 290 119 l 281 119 l 281 144 l 420 325 l 281 505 l 281 530 l 290 530 l 522 325 l 290 119 z "},"":{"ha":1158,"x_min":0,"x_max":0,"o":""},"":{"ha":1332,"x_min":0,"x_max":0,"o":""},"":{"ha":1158,"x_min":0,"x_max":0,"o":""},"":{"ha":507,"x_min":0,"x_max":0,"o":""},"":{"ha":1044,"x_min":0,"x_max":0,"o":""},"":{"ha":1044,"x_min":0,"x_max":0,"o":""},"":{"ha":1044,"x_min":0,"x_max":0,"o":""},"":{"ha":1044,"x_min":0,"x_max":0,"o":""},"":{"ha":1044,"x_min":0,"x_max":0,"o":""},"":{"ha":1044,"x_min":0,"x_max":0,"o":""},"":{"ha":1436,"x_min":0,"x_max":0,"o":""},"":{"ha":949,"x_min":0,"x_max":0,"o":""},"":{"ha":781,"x_min":0,"x_max":0,"o":""},"":{"ha":781,"x_min":0,"x_max":0,"o":""},"":{"ha":781,"x_min":0,"x_max":0,"o":""},"":{"ha":781,"x_min":0,"x_max":0,"o":""},"":{"ha":446,"x_min":0,"x_max":0,"o":""},"":{"ha":446,"x_min":0,"x_max":0,"o":""},"":{"ha":446,"x_min":0,"x_max":0,"o":""},"":{"ha":446,"x_min":0,"x_max":0,"o":""},"":{"ha":1029,"x_min":0,"x_max":0,"o":""},"":{"ha":1054,"x_min":0,"x_max":0,"o":""},"":{"ha":1095,"x_min":0,"x_max":0,"o":""},"":{"ha":1095,"x_min":0,"x_max":0,"o":""},"":{"ha":1095,"x_min":0,"x_max":0,"o":""},"":{"ha":1095,"x_min":0,"x_max":0,"o":""},"":{"ha":1095,"x_min":0,"x_max":0,"o":""},"":{"ha":688,"x_min":109,"x_max":578,"o":"m 344 419 l 176 252 l 109 319 l 277 486 l 109 654 l 176 721 l 344 553 l 512 721 l 578 654 l 411 486 l 578 319 l 511 252 l 344 419 z "},"":{"ha":1095,"x_min":0,"x_max":0,"o":""},"":{"ha":1018,"x_min":0,"x_max":0,"o":""},"":{"ha":1018,"x_min":0,"x_max":0,"o":""},"":{"ha":1018,"x_min":0,"x_max":0,"o":""},"":{"ha":1018,"x_min":0,"x_max":0,"o":""},"":{"ha":836,"x_min":0,"x_max":0,"o":""},"":{"ha":760,"x_min":0,"x_max":0,"o":""},"":{"ha":848,"x_min":0,"x_max":0,"o":""},"":{"ha":625,"x_min":0,"x_max":0,"o":""},"":{"ha":625,"x_min":0,"x_max":0,"o":""},"":{"ha":625,"x_min":0,"x_max":0,"o":""},"":{"ha":625,"x_min":0,"x_max":0,"o":""},"":{"ha":625,"x_min":0,"x_max":0,"o":""},"":{"ha":625,"x_min":0,"x_max":0,"o":""},"":{"ha":986,"x_min":0,"x_max":0,"o":""},"":{"ha":614,"x_min":0,"x_max":0,"o":""},"":{"ha":616,"x_min":0,"x_max":0,"o":""},"":{"ha":616,"x_min":0,"x_max":0,"o":""},"":{"ha":616,"x_min":0,"x_max":0,"o":""},"":{"ha":616,"x_min":0,"x_max":0,"o":""},"":{"ha":349,"x_min":0,"x_max":0,"o":""},"":{"ha":349,"x_min":0,"x_max":0,"o":""},"":{"ha":349,"x_min":0,"x_max":0,"o":""},"":{"ha":349,"x_min":0,"x_max":0,"o":""},"":{"ha":772,"x_min":0,"x_max":0,"o":""},"":{"ha":751,"x_min":0,"x_max":0,"o":""},"":{"ha":685,"x_min":0,"x_max":0,"o":""},"":{"ha":685,"x_min":0,"x_max":0,"o":""},"":{"ha":685,"x_min":0,"x_max":0,"o":""},"":{"ha":685,"x_min":0,"x_max":0,"o":""},"":{"ha":685,"x_min":0,"x_max":0,"o":""},"":{"ha":688,"x_min":59,"x_max":629,"o":"m 59 439 l 59 534 l 628 534 l 629 533 l 629 439 l 59 439 m 270 277 l 326 334 q 345 343 336 343 q 366 332 354 343 l 420 274 q 429 254 429 263 q 419 233 429 244 l 365 174 q 345 160 351 160 q 326 170 334 160 l 266 238 q 259 256 259 247 q 270 277 259 266 m 270 747 l 326 804 q 345 813 336 813 q 366 802 354 813 l 420 744 q 429 724 429 733 q 419 703 429 714 l 365 644 q 345 630 351 630 q 326 640 334 630 l 266 708 q 259 726 259 717 q 270 747 259 736 z "},"":{"ha":685,"x_min":0,"x_max":0,"o":""},"":{"ha":718,"x_min":0,"x_max":0,"o":""},"":{"ha":718,"x_min":0,"x_max":0,"o":""},"":{"ha":718,"x_min":0,"x_max":0,"o":""},"":{"ha":718,"x_min":0,"x_max":0,"o":""},"":{"ha":589,"x_min":0,"x_max":0,"o":""},"":{"ha":685,"x_min":0,"x_max":0,"o":""},"":{"ha":589,"x_min":0,"x_max":0,"o":""},"":{"ha":349,"x_min":13,"x_max":321,"o":"m 222 151 q 290 34 222 34 l 321 34 l 321 0 l 22 0 l 22 34 l 53 34 q 121 151 121 34 l 121 444 q 45 496 121 496 l 13 496 l 13 526 q 190 650 163 573 l 222 650 l 222 151 z "},"":{"ha":694,"x_min":150,"x_max":545,"o":"m 150 732 l 307 972 l 387 972 l 545 732 l 505 732 l 347 878 l 189 732 l 150 732 z "},"":{"ha":694,"x_min":150,"x_max":545,"o":"m 150 972 l 189 972 l 347 827 l 505 972 l 545 972 l 387 731 l 307 731 l 150 972 z "},"":{"ha":694,"x_min":172,"x_max":522,"o":"m 172 810 l 172 895 l 522 895 l 522 810 l 172 810 z "},"":{"ha":694,"x_min":149,"x_max":545,"o":"m 149 915 l 183 915 q 234 842 195 865 q 347 819 273 819 q 460 842 421 819 q 510 915 498 865 l 545 915 q 481 778 531 825 q 347 732 431 732 q 214 779 264 732 q 149 915 163 825 z "},"":{"ha":694,"x_min":277,"x_max":422,"o":"m 286 874 l 333 923 q 342 929 337 927 q 351 931 347 931 q 360 929 355 931 q 368 923 364 927 l 416 871 q 421 865 420 869 q 422 855 422 861 q 420 845 422 849 q 415 837 419 841 l 367 785 q 356 776 359 778 q 351 774 353 774 q 340 776 345 774 q 333 782 336 778 l 282 841 q 278 847 279 844 q 277 857 277 851 q 279 865 277 861 q 286 874 281 869 z "},"":{"ha":694,"x_min":227,"x_max":468,"o":"m 279 852 q 298 804 279 824 q 347 785 318 785 q 395 804 375 785 q 414 852 414 824 q 394 900 414 880 q 347 920 374 920 q 299 900 319 920 q 279 852 279 880 m 227 852 q 262 938 227 903 q 347 972 296 972 q 433 938 398 972 q 468 852 468 903 q 433 767 468 802 q 347 732 398 732 q 262 767 296 732 q 227 852 227 802 z "},"":{"ha":694,"x_min":250,"x_max":500,"o":"m 434 0 q 359 -81 386 -42 q 332 -157 332 -120 q 351 -208 332 -189 q 400 -227 369 -227 q 447 -217 427 -227 q 481 -184 467 -206 l 500 -195 q 438 -260 475 -237 q 357 -283 401 -283 q 280 -259 310 -283 q 250 -198 250 -235 q 291 -92 250 -146 q 401 0 332 -37 l 434 0 z "},"":{"ha":694,"x_min":159,"x_max":548,"o":"m 548 937 q 502 833 534 867 q 416 798 469 798 l 413 798 q 336 814 379 798 q 259 830 292 830 q 218 816 233 830 q 195 768 203 802 l 159 768 q 205 875 172 840 q 292 911 238 911 q 369 895 323 910 q 445 879 412 879 l 448 879 q 487 892 472 879 q 511 937 502 906 l 548 937 z "},"":{"ha":694,"x_min":147,"x_max":547,"o":"m 147 732 l 245 917 q 276 960 261 947 q 307 972 290 972 q 340 959 326 972 q 353 927 353 945 q 346 903 353 916 q 326 876 339 890 l 186 732 l 147 732 m 340 732 l 438 917 q 469 960 454 947 q 500 972 484 972 q 533 959 519 972 q 547 927 547 945 q 539 903 547 916 q 519 876 532 890 l 380 732 l 340 732 z "},"":{"ha":751,"x_min":38,"x_max":713,"o":"m 38 284 l 38 366 l 713 366 l 713 284 l 38 284 z "},"":{"ha":1389,"x_min":0,"x_max":1389,"o":"m 0 284 l 0 366 l 1389 366 l 1389 284 l 0 284 z "},"":{"ha":378,"x_min":126,"x_max":297,"o":"m 216 689 q 156 733 186 689 q 126 836 126 778 q 174 990 126 910 q 269 1069 222 1069 l 269 1040 q 210 911 219 1011 q 297 802 210 831 l 297 774 l 216 689 z "},"":{"ha":378,"x_min":81,"x_max":252,"o":"m 161 1069 q 221 1025 191 1069 q 252 922 252 981 q 203 769 252 848 q 109 689 155 689 l 109 718 q 168 847 159 747 q 81 956 168 928 l 81 985 l 161 1069 z "},"":{"ha":378,"x_min":81,"x_max":252,"o":"m 161 191 q 221 146 191 191 q 252 43 252 102 q 203 -110 252 -31 q 109 -190 155 -190 l 109 -161 q 168 -32 159 -132 q 81 77 168 49 l 81 106 l 161 191 z "},"":{"ha":617,"x_min":126,"x_max":536,"o":"m 216 689 q 156 733 186 689 q 126 836 126 778 q 174 990 126 910 q 269 1069 222 1069 l 269 1040 q 210 911 219 1011 q 297 802 210 831 l 297 774 l 216 689 m 456 689 q 396 733 426 689 q 366 836 366 778 q 414 990 366 910 q 508 1069 462 1069 l 508 1040 q 449 911 458 1011 q 536 802 449 831 l 536 774 l 456 689 z "},"":{"ha":617,"x_min":81,"x_max":491,"o":"m 161 1069 q 221 1025 191 1069 q 252 922 252 981 q 203 769 252 848 q 109 689 155 689 l 109 718 q 168 847 159 747 q 81 956 168 928 l 81 985 l 161 1069 m 401 1069 q 461 1025 431 1069 q 491 922 491 981 q 443 769 491 848 q 349 689 395 689 l 349 718 q 408 847 398 747 q 320 956 408 928 l 320 985 l 401 1069 z "},"":{"ha":617,"x_min":81,"x_max":491,"o":"m 161 191 q 221 146 191 191 q 252 43 252 102 q 203 -110 252 -31 q 109 -190 155 -190 l 109 -161 q 168 -32 159 -132 q 81 77 168 49 l 81 106 l 161 191 m 401 191 q 461 146 431 191 q 491 43 491 102 q 443 -110 491 -31 q 349 -190 395 -190 l 349 -161 q 408 -32 398 -132 q 320 77 408 49 l 320 106 l 401 191 z "},"":{"ha":688,"x_min":48,"x_max":640,"o":"m 330 693 q 293 814 324 759 q 254 901 254 882 q 279 955 254 935 q 344 975 303 975 q 408 956 382 975 q 433 907 433 937 q 396 814 433 886 q 359 693 365 757 q 479 730 424 699 q 566 768 547 768 q 620 744 600 768 q 640 679 640 720 q 622 615 640 640 q 572 589 603 589 q 480 627 551 589 q 359 665 422 658 q 433 477 364 546 q 357 -183 361 165 l 332 -183 q 254 477 328 165 q 330 665 323 546 q 209 628 264 659 q 121 589 140 589 q 68 614 88 589 q 48 679 48 638 q 67 743 48 718 q 115 768 85 768 q 208 730 137 768 q 330 693 266 699 z "},"":{"ha":688,"x_min":47,"x_max":640,"o":"m 358 126 q 479 165 422 134 q 572 202 550 202 q 621 177 602 202 q 640 113 640 151 q 619 47 640 72 q 566 23 599 23 q 478 62 547 23 q 358 98 423 93 q 395 -23 364 35 q 433 -116 433 -94 q 407 -164 433 -146 q 343 -183 382 -183 q 278 -163 302 -183 q 254 -110 254 -143 q 292 -22 254 -91 q 329 98 323 33 q 208 61 265 92 q 115 23 136 23 q 66 48 85 23 q 47 113 47 74 q 67 178 47 153 q 121 202 87 202 q 208 163 140 202 q 329 126 264 133 q 254 396 323 279 q 329 665 323 512 q 208 628 264 659 q 121 589 140 589 q 67 614 87 589 q 47 679 47 638 q 66 743 47 718 q 115 768 85 768 q 208 730 136 768 q 329 693 265 699 q 292 814 323 759 q 254 901 254 882 q 278 955 254 935 q 343 975 302 975 q 407 956 382 975 q 433 907 433 937 q 395 814 433 886 q 358 693 364 757 q 478 730 423 699 q 566 768 547 768 q 619 744 599 768 q 640 679 640 720 q 621 615 640 640 q 572 589 602 589 q 479 627 550 589 q 358 665 422 658 q 433 396 363 512 q 358 126 363 279 z "},"":{"ha":694,"x_min":146,"x_max":548,"o":"m 146 487 q 205 629 146 570 q 348 687 264 687 q 489 628 431 687 q 548 487 548 570 q 489 345 548 404 q 347 286 429 286 q 205 345 263 286 q 146 487 146 404 z "},"":{"ha":428,"x_min":118,"x_max":359,"o":"m 118 325 l 350 530 l 359 530 l 359 505 l 220 325 l 359 144 l 359 119 l 350 119 l 118 325 z "},"":{"ha":428,"x_min":68,"x_max":310,"o":"m 78 119 l 68 119 l 68 144 l 208 325 l 68 505 l 68 530 l 78 530 l 310 325 l 78 119 z "},"":{"ha":232,"x_min":-232,"x_max":463,"o":"m -232 -20 l 406 971 l 463 971 l -174 -20 l -232 -20 z "},"":{"ha":688,"x_min":33,"x_max":723,"o":"m 168 242 l 36 242 l 36 283 l 168 283 l 168 779 q 98 939 168 939 l 33 939 l 33 972 l 653 972 l 723 816 l 690 816 q 561 939 650 939 l 347 939 q 277 779 277 939 l 277 541 l 522 541 q 590 583 590 541 l 590 623 l 624 623 l 624 391 l 590 391 l 590 431 q 522 473 590 473 l 277 473 l 277 283 l 409 283 l 409 242 l 277 242 l 277 193 q 347 34 277 34 l 412 34 l 412 0 l 33 0 l 33 34 l 98 34 q 168 193 168 34 l 168 242 z "},"":{"ha":688,"x_min":52,"x_max":635,"o":"m 507 913 q 399 935 458 935 l 397 935 q 269 866 330 935 q 212 703 212 803 q 212 682 212 692 q 235 538 212 610 l 492 538 l 492 497 l 248 497 q 266 456 256 477 l 505 456 l 505 416 l 287 416 q 311 322 311 373 q 201 68 311 213 l 473 68 q 602 157 562 68 l 635 157 l 565 0 l 77 0 l 78 34 q 205 317 205 195 q 182 414 205 370 l 180 416 l 64 416 l 64 456 l 161 456 q 143 497 151 477 l 52 497 l 52 538 l 128 538 q 104 669 104 610 q 188 904 104 822 q 398 986 271 986 q 524 977 449 986 q 599 954 599 967 l 599 844 l 559 844 q 507 913 556 886 z "},"":{"ha":1375,"x_min":33,"x_max":1334,"o":"m 277 939 l 277 490 q 282 478 279 484 q 355 374 310 409 q 434 345 394 345 q 447 345 441 345 q 533 396 493 351 q 592 516 573 441 q 607 637 607 575 q 606 669 607 654 q 573 818 602 748 q 499 916 544 887 q 423 939 461 939 q 409 939 416 939 l 277 939 m 1015 616 l 893 616 l 893 151 q 916 71 893 96 q 971 45 935 50 l 923 176 l 956 176 q 1034 58 994 88 q 1120 28 1072 28 l 1124 28 q 1227 64 1187 28 q 1267 156 1267 100 q 1091 309 1267 225 q 994 385 1023 345 q 964 484 964 426 q 1014 615 964 566 l 1015 616 m 705 617 q 672 486 700 549 q 576 365 638 408 q 448 322 515 322 q 318 366 380 322 q 277 400 296 380 l 277 193 q 347 34 277 34 l 412 34 l 412 0 l 33 0 l 33 34 l 98 34 q 168 193 168 34 l 168 779 q 98 939 168 939 l 33 939 l 33 972 l 452 972 q 574 930 514 971 q 671 810 636 888 q 706 650 705 734 l 713 650 q 859 890 859 650 l 893 890 l 893 650 l 1069 650 q 1143 663 1097 663 l 1145 663 q 1235 654 1181 663 q 1289 631 1289 645 l 1289 524 l 1261 524 q 1216 597 1258 568 q 1126 625 1175 625 q 1056 601 1082 625 q 1030 535 1030 576 q 1190 386 1030 462 q 1303 306 1272 349 q 1334 202 1334 264 q 1278 45 1334 107 q 1123 -13 1208 -12 q 1052 -5 1084 -13 q 1014 -1 1033 -1 q 989 -3 1002 -1 q 949 -7 970 -7 q 832 32 865 -7 q 793 151 798 71 l 792 151 l 792 617 l 705 617 z "},"":{"ha":688,"x_min":-30,"x_max":724,"o":"m 95 252 q 43 443 53 344 l -30 443 l -18 484 l 41 484 l 41 503 q 41 524 41 514 l -7 524 l 5 565 l 44 565 q 96 755 54 663 q 249 941 151 876 q 451 1006 347 1006 q 510 1001 480 1006 q 566 981 537 994 q 576 977 571 977 q 600 1008 590 977 l 627 1008 l 684 817 l 657 817 q 564 937 624 907 q 509 959 534 952 l 509 961 q 440 972 475 972 q 417 970 429 972 q 264 893 336 962 q 157 708 192 825 q 131 565 136 637 l 610 565 l 598 524 l 129 524 q 130 484 129 504 l 587 484 l 576 443 l 134 443 q 190 241 145 336 q 321 81 240 134 q 467 34 390 35 q 641 96 593 36 q 691 221 691 157 l 724 221 l 724 124 q 648 38 724 77 q 467 0 577 1 q 247 66 345 0 q 95 252 149 133 z "},"":{"ha":1540,"x_min":0,"x_max":0,"o":""},"":{"ha":1015,"x_min":0,"x_max":0,"o":""},"":{"ha":688,"x_min":52,"x_max":635,"o":"m 157 364 q 161 311 157 336 q 202 155 170 228 q 283 43 235 81 q 370 7 326 7 q 378 7 374 7 q 465 55 426 11 q 519 177 504 100 q 530 278 530 227 q 527 336 530 307 q 485 493 517 418 q 404 605 452 567 q 317 639 359 639 l 309 639 q 224 592 263 635 q 168 471 184 548 q 157 364 157 414 m 635 323 q 597 153 635 234 q 489 28 559 73 q 344 -17 420 -17 q 198 28 268 -17 q 91 153 129 73 q 52 323 52 234 q 92 494 52 412 q 201 619 131 575 q 344 663 271 663 q 488 619 418 663 q 524 591 507 607 q 366 847 467 751 q 144 952 264 943 l 144 989 q 494 796 352 989 q 635 323 635 603 z "},"":{"ha":733,"x_min":4,"x_max":728,"o":"m 349 810 l 73 83 l 616 83 l 349 810 m 371 972 l 728 0 l 4 0 l 371 972 z "},"":{"ha":1027,"x_min":33,"x_max":995,"o":"m 347 939 q 277 779 277 939 l 277 -90 q 347 -249 277 -249 l 412 -249 l 412 -283 l 33 -283 l 33 -249 l 98 -249 q 168 -90 168 -249 l 168 779 q 98 939 168 939 l 33 939 l 33 972 l 995 972 l 995 939 l 929 939 q 860 779 860 939 l 860 -90 q 929 -249 860 -249 l 995 -249 l 995 -283 l 615 -283 l 615 -249 l 680 -249 q 750 -90 750 -249 l 750 779 q 680 939 750 939 l 347 939 z "},"":{"ha":818,"x_min":81,"x_max":776,"o":"m 718 372 l 184 -248 l 614 -248 q 743 -125 703 -248 l 776 -125 l 706 -282 l 81 -282 l 81 -248 q 153 -212 123 -248 l 603 317 l 153 900 q 81 939 123 939 l 81 972 l 706 972 l 776 815 l 743 815 q 614 939 703 939 l 286 939 l 718 372 z "},"":{"ha":688,"x_min":59,"x_max":629,"o":"m 59 439 l 59 534 l 628 534 l 629 533 l 629 439 l 59 439 z "},"":{"ha":688,"x_min":12,"x_max":715,"o":"m 123 0 l 12 243 l 62 267 l 119 142 l 613 1139 l 715 1139 l 715 1098 l 666 1098 l 123 0 z "},"":{"ha":688,"x_min":45,"x_max":645,"o":"m 298 512 q 248 602 288 582 q 191 617 216 617 q 175 616 182 617 q 112 586 142 609 q 68 528 83 562 q 54 467 54 497 l 54 462 q 73 401 56 429 q 121 362 90 374 q 163 355 141 355 q 185 357 174 355 q 247 386 217 363 q 298 512 276 409 m 316 466 q 380 362 324 401 q 463 330 427 330 q 477 331 471 330 q 557 366 519 339 q 614 435 595 393 q 632 508 632 471 l 632 515 q 608 589 631 556 q 546 635 585 622 q 494 644 521 644 q 465 642 479 644 q 378 600 419 635 q 316 466 338 564 m 305 561 q 319 608 311 585 q 384 701 342 667 q 471 734 425 734 q 557 701 516 734 q 622 610 599 669 q 645 486 645 551 q 622 363 645 422 q 557 271 599 304 q 471 239 516 239 q 384 272 425 239 q 319 364 342 305 q 305 412 311 388 q 297 384 302 397 q 247 307 279 334 q 180 280 215 280 q 112 308 144 280 q 62 385 79 336 q 45 486 45 434 q 62 587 45 538 q 112 665 79 637 q 180 692 144 692 q 247 665 215 692 q 297 589 279 638 q 305 561 302 575 z "},"":{"ha":451,"x_min":-49,"x_max":492,"o":"m -8 -191 q -49 -171 -49 -191 l -49 -63 l -24 -63 q -1 -107 -24 -92 q 42 -121 22 -121 l 43 -121 q 121 -12 98 -121 q 148 203 142 98 l 195 701 l 201 743 q 292 1034 219 904 q 451 1164 366 1164 q 492 1144 492 1164 l 492 1036 l 467 1036 q 444 1080 467 1065 q 401 1095 420 1095 q 322 989 353 1095 q 289 743 292 884 l 239 222 q 151 -62 226 66 q -8 -191 76 -191 z "},"":{"ha":688,"x_min":64,"x_max":626,"o":"m 626 714 l 626 608 q 543 542 583 559 q 465 525 503 525 q 344 558 424 525 q 224 591 264 591 q 152 572 190 591 q 64 496 113 553 l 64 602 q 147 669 107 651 q 224 686 187 686 q 348 653 268 686 q 465 619 427 619 q 538 638 500 619 q 626 714 576 657 m 626 478 l 626 372 q 543 306 583 323 q 465 289 503 289 q 344 322 424 289 q 224 355 264 355 q 152 336 190 355 q 64 260 113 317 l 64 366 q 147 433 107 415 q 224 450 187 450 q 348 417 268 450 q 465 383 427 383 q 538 402 500 383 q 626 478 576 421 z "},"":{"ha":688,"x_min":59,"x_max":629,"o":"m 629 728 l 205 485 l 629 244 l 629 131 l 59 457 l 59 513 l 629 842 l 629 728 m 59 1 l 59 96 l 628 96 l 629 95 l 629 1 l 59 1 z "},"":{"ha":688,"x_min":59,"x_max":629,"o":"m 59 842 l 629 513 l 629 457 l 59 131 l 59 244 l 483 485 l 59 728 l 59 842 m 59 1 l 59 96 l 628 96 l 629 96 l 629 1 l 59 1 z "},"":{"ha":728,"x_min":0,"x_max":0,"o":""},"":{"ha":733,"x_min":0,"x_max":0,"o":""}}}
